<?xml version="1.0" encoding="UTF-8" standalone="no"?>
<!-- Generator: Adobe Illustrator 19.0.0, SVG Export Plug-In . SVG Version: 6.00 Build 0)  -->

<svg
   xmlns:dc="http://purl.org/dc/elements/1.1/"
   xmlns:cc="http://creativecommons.org/ns#"
   xmlns:rdf="http://www.w3.org/1999/02/22-rdf-syntax-ns#"
   xmlns:svg="http://www.w3.org/2000/svg"
   xmlns="http://www.w3.org/2000/svg"
   xmlns:sodipodi="http://sodipodi.sourceforge.net/DTD/sodipodi-0.dtd"
   xmlns:inkscape="http://www.inkscape.org/namespaces/inkscape"
   version="1.1"
   id="Layer_1"
   x="0px"
   y="0px"
   viewBox="0 0 650 500"
   xml:space="preserve"
   inkscape:version="0.91 r"
   sodipodi:docname="array.svg"
   width="650"
   height="500"><metadata
     id="metadata45"><rdf:RDF><cc:Work
         rdf:about=""><dc:format>image/svg+xml</dc:format><dc:type
           rdf:resource="http://purl.org/dc/dcmitype/StillImage" /><dc:title></dc:title></cc:Work></rdf:RDF></metadata><defs
     id="defs43" /><sodipodi:namedview
     pagecolor="#ffffff"
     bordercolor="#666666"
     borderopacity="1"
     objecttolerance="10"
     gridtolerance="10"
     guidetolerance="10"
     inkscape:pageopacity="0"
     inkscape:pageshadow="2"
     inkscape:window-width="1366"
     inkscape:window-height="719"
     id="namedview41"
     showgrid="false"
     inkscape:zoom="0.4609375"
     inkscape:cx="-17.355932"
     inkscape:cy="256"
     inkscape:window-x="0"
     inkscape:window-y="26"
     inkscape:window-maximized="1"
     inkscape:current-layer="Layer_1" /><g
     id="g11"
     transform="translate(0,-12)" /><g
     id="g13"
     transform="translate(0,-12)" /><g
     id="g15"
     transform="translate(0,-12)" /><g
     id="g17"
     transform="translate(0,-12)" /><g
     id="g19"
     transform="translate(0,-12)" /><g
     id="g21"
     transform="translate(0,-12)" /><g
     id="g23"
     transform="translate(0,-12)" /><g
     id="g25"
     transform="translate(0,-12)" /><g
     id="g27"
     transform="translate(0,-12)" /><g
     id="g29"
     transform="translate(0,-12)" /><g
     id="g31"
     transform="translate(0,-12)" /><g
     id="g33"
     transform="translate(0,-12)" /><g
     id="g35"
     transform="translate(0,-12)" /><g
     id="g37"
     transform="translate(0,-12)" /><g
     id="g39"
     transform="translate(0,-12)" /><g
     id="g4195"><rect
       y="1.2542343"
       x="0.5423584"
       height="503.32202"
       width="657.3559"
       id="rect4189"
       style="opacity:1;fill:#6dc82a;fill-opacity:1;stroke:none;stroke-width:3;stroke-miterlimit:4;stroke-dasharray:none;stroke-opacity:1" /><path
       inkscape:connector-curvature="0"
       id="path7"
       d="m 294.42487,383.08484 -50.40989,0 c -6.95738,0 -12.60284,-5.14095 -12.60284,-11.48578 l 0,-237.36762 c 0,-6.34484 5.64546,-11.48579 12.60284,-11.48579 l 50.41064,0 c 6.95738,0 12.60285,5.14095 12.60285,11.48579 0,6.34484 -5.64547,11.48579 -12.60285,11.48579 l -37.80779,0 0,214.39674 37.80779,0 c 6.95738,0 12.60285,5.14094 12.60285,11.48578 0,6.34484 -5.64622,11.48509 -12.6036,11.48509 z"
       style="fill:#ffffff" /><path
       style="fill:#ffffff"
       d="m 364.01574,383.08484 50.40989,0 c 6.95738,0 12.60284,-5.14095 12.60284,-11.48578 l 0,-237.36762 c 0,-6.34484 -5.64546,-11.48579 -12.60284,-11.48579 l -50.41064,0 c -6.95738,0 -12.60285,5.14095 -12.60285,11.48579 0,6.34484 5.64547,11.48579 12.60285,11.48579 l 37.80779,0 0,214.39674 -37.80779,0 c -6.95738,0 -12.60285,5.14094 -12.60285,11.48578 0,6.34484 5.64622,11.48509 12.6036,11.48509 z"
       id="path4193"
       inkscape:connector-curvature="0" /><rect
       style="opacity:0.3;fill:#000000;fill-opacity:1;stroke:none;stroke-width:3;stroke-miterlimit:4;stroke-dasharray:none;stroke-opacity:1"
       id="rect4191"
       width="329.76266"
       height="503.32202"
       x="328.13559"
       y="1.2542343" /></g></svg>