<?xml version="1.0" encoding="UTF-8" standalone="no"?>
<!-- Generator: Adobe Illustrator 18.0.0, SVG Export Plug-In . SVG Version: 6.00 Build 0)  -->

<svg
   xmlns:dc="http://purl.org/dc/elements/1.1/"
   xmlns:cc="http://creativecommons.org/ns#"
   xmlns:rdf="http://www.w3.org/1999/02/22-rdf-syntax-ns#"
   xmlns:svg="http://www.w3.org/2000/svg"
   xmlns="http://www.w3.org/2000/svg"
   xmlns:sodipodi="http://sodipodi.sourceforge.net/DTD/sodipodi-0.dtd"
   xmlns:inkscape="http://www.inkscape.org/namespaces/inkscape"
   version="1.1"
   id="Capa_1"
   x="0px"
   y="0px"
   viewBox="0 0 650 500"
   xml:space="preserve"
   inkscape:version="0.91 r"
   sodipodi:docname="basket.svg"
   width="650"
   height="500"><metadata
     id="metadata219"><rdf:RDF><cc:Work
         rdf:about=""><dc:format>image/svg+xml</dc:format><dc:type
           rdf:resource="http://purl.org/dc/dcmitype/StillImage" /><dc:title></dc:title></cc:Work></rdf:RDF></metadata><defs
     id="defs217" /><sodipodi:namedview
     pagecolor="#ffffff"
     bordercolor="#666666"
     borderopacity="1"
     objecttolerance="10"
     gridtolerance="10"
     guidetolerance="10"
     inkscape:pageopacity="0"
     inkscape:pageshadow="2"
     inkscape:window-width="1366"
     inkscape:window-height="719"
     id="namedview215"
     showgrid="false"
     inkscape:zoom="0.81458701"
     inkscape:cx="127.96764"
     inkscape:cy="250"
     inkscape:window-x="0"
     inkscape:window-y="26"
     inkscape:window-maximized="1"
     inkscape:current-layer="Capa_1" /><rect
     style="opacity:1;fill:#eb9532;fill-opacity:1;stroke:none;stroke-width:3;stroke-miterlimit:4;stroke-dasharray:none;stroke-opacity:1"
     id="rect4347"
     width="653.09167"
     height="503.32254"
     x="0"
     y="0.36031273" /><g
     id="g3"
     transform="matrix(7.4344008,0,0,6.3842804,105.57497,53.836451)"><rect
       y="19.5"
       style="fill:#8697cb"
       width="58"
       height="6"
       id="rect5"
       x="0" /><path
       style="fill:#556080"
       d="m 52.433,57.5 -46.866,0 C 3.597,57.5 2,55.903 2,53.933 L 2,25.5 l 54,0 0,28.433 c 0,1.97 -1.597,3.567 -3.567,3.567 z"
       id="path7"
       inkscape:connector-curvature="0" /><path
       style="fill:#556080"
       d="M 6,23.5 C 5.871,23.5 5.739,23.475 5.612,23.422 5.103,23.207 4.864,22.621 5.078,22.112 L 12.427,4.659 C 12.979,3.348 14.255,2.5 15.679,2.5 L 18,2.5 c 0.552,0 1,0.447 1,1 0,0.553 -0.448,1 -1,1 l -2.321,0 c -0.617,0 -1.169,0.367 -1.408,0.935 L 6.922,22.888 C 6.761,23.271 6.39,23.5 6,23.5 Z"
       id="path9"
       inkscape:connector-curvature="0" /><path
       style="fill:#556080"
       d="m 52,23.5 c -0.39,0 -0.761,-0.229 -0.922,-0.612 L 43.729,5.435 C 43.491,4.867 42.938,4.5 42.321,4.5 L 40,4.5 c -0.552,0 -1,-0.447 -1,-1 0,-0.553 0.448,-1 1,-1 l 2.321,0 c 1.423,0 2.7,0.848 3.252,2.159 l 7.349,17.453 c 0.214,0.509 -0.025,1.095 -0.534,1.31 C 52.261,23.475 52.13,23.5 52,23.5 Z"
       id="path11"
       inkscape:connector-curvature="0" /><circle
       style="fill:#8697cb"
       cx="23"
       cy="31.5"
       r="1"
       id="circle13" /><circle
       style="fill:#8697cb"
       cx="26"
       cy="28.5"
       r="1"
       id="circle15" /><circle
       style="fill:#8697cb"
       cx="26"
       cy="34.5"
       r="1"
       id="circle17" /><circle
       style="fill:#8697cb"
       cx="29"
       cy="31.5"
       r="1"
       id="circle19" /><circle
       style="fill:#8697cb"
       cx="17"
       cy="31.5"
       r="1"
       id="circle21" /><circle
       style="fill:#8697cb"
       cx="20"
       cy="28.5"
       r="1"
       id="circle23" /><circle
       style="fill:#8697cb"
       cx="20"
       cy="34.5"
       r="1"
       id="circle25" /><circle
       style="fill:#8697cb"
       cx="5"
       cy="31.5"
       r="1"
       id="circle27" /><circle
       style="fill:#8697cb"
       cx="11"
       cy="31.5"
       r="1"
       id="circle29" /><circle
       style="fill:#8697cb"
       cx="8"
       cy="28.5"
       r="1"
       id="circle31" /><circle
       style="fill:#8697cb"
       cx="14"
       cy="28.5"
       r="1"
       id="circle33" /><circle
       style="fill:#8697cb"
       cx="8"
       cy="34.5"
       r="1"
       id="circle35" /><circle
       style="fill:#8697cb"
       cx="14"
       cy="34.5"
       r="1"
       id="circle37" /><circle
       style="fill:#8697cb"
       cx="53"
       cy="31.5"
       r="1"
       id="circle39" /><circle
       style="fill:#8697cb"
       cx="47"
       cy="31.5"
       r="1"
       id="circle41" /><circle
       style="fill:#8697cb"
       cx="50"
       cy="28.5"
       r="1"
       id="circle43" /><circle
       style="fill:#8697cb"
       cx="50"
       cy="34.5"
       r="1"
       id="circle45" /><circle
       style="fill:#8697cb"
       cx="32"
       cy="28.5"
       r="1"
       id="circle47" /><circle
       style="fill:#8697cb"
       cx="32"
       cy="34.5"
       r="1"
       id="circle49" /><circle
       style="fill:#8697cb"
       cx="35"
       cy="31.5"
       r="1"
       id="circle51" /><circle
       style="fill:#8697cb"
       cx="41"
       cy="31.5"
       r="1"
       id="circle53" /><circle
       style="fill:#8697cb"
       cx="23"
       cy="37.5"
       r="1"
       id="circle55" /><circle
       style="fill:#8697cb"
       cx="29"
       cy="37.5"
       r="1"
       id="circle57" /><circle
       style="fill:#8697cb"
       cx="17"
       cy="37.5"
       r="1"
       id="circle59" /><circle
       style="fill:#8697cb"
       cx="5"
       cy="37.5"
       r="1"
       id="circle61" /><circle
       style="fill:#8697cb"
       cx="11"
       cy="37.5"
       r="1"
       id="circle63" /><circle
       style="fill:#8697cb"
       cx="53"
       cy="37.5"
       r="1"
       id="circle65" /><circle
       style="fill:#8697cb"
       cx="47"
       cy="37.5"
       r="1"
       id="circle67" /><circle
       style="fill:#8697cb"
       cx="35"
       cy="37.5"
       r="1"
       id="circle69" /><circle
       style="fill:#8697cb"
       cx="41"
       cy="37.5"
       r="1"
       id="circle71" /><circle
       style="fill:#8697cb"
       cx="38"
       cy="28.5"
       r="1"
       id="circle73" /><circle
       style="fill:#8697cb"
       cx="44"
       cy="28.5"
       r="1"
       id="circle75" /><circle
       style="fill:#8697cb"
       cx="38"
       cy="34.5"
       r="1"
       id="circle77" /><circle
       style="fill:#8697cb"
       cx="44"
       cy="34.5"
       r="1"
       id="circle79" /><circle
       style="fill:#8697cb"
       cx="23"
       cy="43.5"
       r="1"
       id="circle81" /><circle
       style="fill:#8697cb"
       cx="26"
       cy="40.5"
       r="1"
       id="circle83" /><circle
       style="fill:#8697cb"
       cx="26"
       cy="46.5"
       r="1"
       id="circle85" /><circle
       style="fill:#8697cb"
       cx="29"
       cy="43.5"
       r="1"
       id="circle87" /><circle
       style="fill:#8697cb"
       cx="17"
       cy="43.5"
       r="1"
       id="circle89" /><circle
       style="fill:#8697cb"
       cx="20"
       cy="40.5"
       r="1"
       id="circle91" /><circle
       style="fill:#8697cb"
       cx="20"
       cy="46.5"
       r="1"
       id="circle93" /><circle
       style="fill:#8697cb"
       cx="5"
       cy="43.5"
       r="1"
       id="circle95" /><circle
       style="fill:#8697cb"
       cx="11"
       cy="43.5"
       r="1"
       id="circle97" /><circle
       style="fill:#8697cb"
       cx="8"
       cy="40.5"
       r="1"
       id="circle99" /><circle
       style="fill:#8697cb"
       cx="14"
       cy="40.5"
       r="1"
       id="circle101" /><circle
       style="fill:#8697cb"
       cx="8"
       cy="46.5"
       r="1"
       id="circle103" /><circle
       style="fill:#8697cb"
       cx="14"
       cy="46.5"
       r="1"
       id="circle105" /><circle
       style="fill:#8697cb"
       cx="53"
       cy="43.5"
       r="1"
       id="circle107" /><circle
       style="fill:#8697cb"
       cx="47"
       cy="43.5"
       r="1"
       id="circle109" /><circle
       style="fill:#8697cb"
       cx="50"
       cy="40.5"
       r="1"
       id="circle111" /><circle
       style="fill:#8697cb"
       cx="50"
       cy="46.5"
       r="1"
       id="circle113" /><circle
       style="fill:#8697cb"
       cx="32"
       cy="40.5"
       r="1"
       id="circle115" /><circle
       style="fill:#8697cb"
       cx="32"
       cy="46.5"
       r="1"
       id="circle117" /><circle
       style="fill:#8697cb"
       cx="35"
       cy="43.5"
       r="1"
       id="circle119" /><circle
       style="fill:#8697cb"
       cx="41"
       cy="43.5"
       r="1"
       id="circle121" /><circle
       style="fill:#8697cb"
       cx="23"
       cy="49.5"
       r="1"
       id="circle123" /><circle
       style="fill:#8697cb"
       cx="29"
       cy="49.5"
       r="1"
       id="circle125" /><circle
       style="fill:#8697cb"
       cx="17"
       cy="49.5"
       r="1"
       id="circle127" /><circle
       style="fill:#8697cb"
       cx="5"
       cy="49.5"
       r="1"
       id="circle129" /><circle
       style="fill:#8697cb"
       cx="11"
       cy="49.5"
       r="1"
       id="circle131" /><circle
       style="fill:#8697cb"
       cx="53"
       cy="49.5"
       r="1"
       id="circle133" /><circle
       style="fill:#8697cb"
       cx="47"
       cy="49.5"
       r="1"
       id="circle135" /><circle
       style="fill:#8697cb"
       cx="35"
       cy="49.5"
       r="1"
       id="circle137" /><circle
       style="fill:#8697cb"
       cx="41"
       cy="49.5"
       r="1"
       id="circle139" /><circle
       style="fill:#8697cb"
       cx="38"
       cy="40.5"
       r="1"
       id="circle141" /><circle
       style="fill:#8697cb"
       cx="44"
       cy="40.5"
       r="1"
       id="circle143" /><circle
       style="fill:#8697cb"
       cx="38"
       cy="46.5"
       r="1"
       id="circle145" /><circle
       style="fill:#8697cb"
       cx="44"
       cy="46.5"
       r="1"
       id="circle147" /><circle
       style="fill:#8697cb"
       cx="23"
       cy="55.5"
       r="1"
       id="circle149" /><circle
       style="fill:#8697cb"
       cx="26"
       cy="52.5"
       r="1"
       id="circle151" /><circle
       style="fill:#8697cb"
       cx="29"
       cy="55.5"
       r="1"
       id="circle153" /><circle
       style="fill:#8697cb"
       cx="17"
       cy="55.5"
       r="1"
       id="circle155" /><circle
       style="fill:#8697cb"
       cx="20"
       cy="52.5"
       r="1"
       id="circle157" /><circle
       style="fill:#8697cb"
       cx="5"
       cy="55.5"
       r="1"
       id="circle159" /><circle
       style="fill:#8697cb"
       cx="11"
       cy="55.5"
       r="1"
       id="circle161" /><circle
       style="fill:#8697cb"
       cx="8"
       cy="52.5"
       r="1"
       id="circle163" /><circle
       style="fill:#8697cb"
       cx="14"
       cy="52.5"
       r="1"
       id="circle165" /><circle
       style="fill:#8697cb"
       cx="53"
       cy="55.5"
       r="1"
       id="circle167" /><circle
       style="fill:#8697cb"
       cx="47"
       cy="55.5"
       r="1"
       id="circle169" /><circle
       style="fill:#8697cb"
       cx="50"
       cy="52.5"
       r="1"
       id="circle171" /><circle
       style="fill:#8697cb"
       cx="32"
       cy="52.5"
       r="1"
       id="circle173" /><circle
       style="fill:#8697cb"
       cx="35"
       cy="55.5"
       r="1"
       id="circle175" /><circle
       style="fill:#8697cb"
       cx="41"
       cy="55.5"
       r="1"
       id="circle177" /><circle
       style="fill:#8697cb"
       cx="38"
       cy="52.5"
       r="1"
       id="circle179" /><circle
       style="fill:#8697cb"
       cx="44"
       cy="52.5"
       r="1"
       id="circle181" /><path
       style="fill:#f0c419"
       d="m 37,6.5 -16,0 c -1.65,0 -3,-1.35 -3,-3 l 0,0 c 0,-1.65 1.35,-3 3,-3 l 16,0 c 1.65,0 3,1.35 3,3 l 0,0 c 0,1.65 -1.35,3 -3,3 z"
       id="path183"
       inkscape:connector-curvature="0" /></g><g
     id="g185"
     transform="translate(0,442)" /><g
     id="g187"
     transform="translate(0,442)" /><g
     id="g189"
     transform="translate(0,442)" /><g
     id="g191"
     transform="translate(0,442)" /><g
     id="g193"
     transform="translate(0,442)" /><g
     id="g195"
     transform="translate(0,442)" /><g
     id="g197"
     transform="translate(0,442)" /><g
     id="g199"
     transform="translate(0,442)" /><g
     id="g201"
     transform="translate(0,442)" /><g
     id="g203"
     transform="translate(0,442)" /><g
     id="g205"
     transform="translate(0,442)" /><g
     id="g207"
     transform="translate(0,442)" /><g
     id="g209"
     transform="translate(0,442)" /><g
     id="g211"
     transform="translate(0,442)" /><g
     id="g213"
     transform="translate(0,442)" /><rect
     y="0.36031273"
     x="328.77237"
     height="503.32254"
     width="322.86298"
     id="rect4349"
     style="opacity:0.3;fill:#000000;fill-opacity:1;stroke:none;stroke-width:3;stroke-miterlimit:4;stroke-dasharray:none;stroke-opacity:1" /></svg>