<?xml version="1.0" encoding="UTF-8" standalone="no"?>
<!-- Generator: Adobe Illustrator 16.0.0, SVG Export Plug-In . SVG Version: 6.00 Build 0)  -->

<svg
   xmlns:dc="http://purl.org/dc/elements/1.1/"
   xmlns:cc="http://creativecommons.org/ns#"
   xmlns:rdf="http://www.w3.org/1999/02/22-rdf-syntax-ns#"
   xmlns:svg="http://www.w3.org/2000/svg"
   xmlns="http://www.w3.org/2000/svg"
   xmlns:sodipodi="http://sodipodi.sourceforge.net/DTD/sodipodi-0.dtd"
   xmlns:inkscape="http://www.inkscape.org/namespaces/inkscape"
   version="1.1"
   id="Capa_1"
   x="0px"
   y="0px"
   width="650"
   height="500"
   viewBox="0 0 118.7748 91.365234"
   xml:space="preserve"
   inkscape:version="0.91 r"
   sodipodi:docname="constant.svg"><metadata
     id="metadata43"><rdf:RDF><cc:Work
         rdf:about=""><dc:format>image/svg+xml</dc:format><dc:type
           rdf:resource="http://purl.org/dc/dcmitype/StillImage" /><dc:title></dc:title></cc:Work></rdf:RDF></metadata><defs
     id="defs41" /><sodipodi:namedview
     pagecolor="#ffffff"
     bordercolor="#666666"
     borderopacity="1"
     objecttolerance="10"
     gridtolerance="10"
     guidetolerance="10"
     inkscape:pageopacity="0"
     inkscape:pageshadow="2"
     inkscape:window-width="1366"
     inkscape:window-height="719"
     id="namedview39"
     showgrid="false"
     inkscape:zoom="0.556"
     inkscape:cx="25.610134"
     inkscape:cy="106.11511"
     inkscape:window-x="0"
     inkscape:window-y="26"
     inkscape:window-maximized="1"
     inkscape:current-layer="Capa_1" /><g
     id="g9"
     transform="translate(0,-2.1927655)" /><g
     id="g11"
     transform="translate(0,-2.1927655)" /><g
     id="g13"
     transform="translate(0,-2.1927655)" /><g
     id="g15"
     transform="translate(0,-2.1927655)" /><g
     id="g17"
     transform="translate(0,-2.1927655)" /><g
     id="g19"
     transform="translate(0,-2.1927655)" /><g
     id="g21"
     transform="translate(0,-2.1927655)" /><g
     id="g23"
     transform="translate(0,-2.1927655)" /><g
     id="g25"
     transform="translate(0,-2.1927655)" /><g
     id="g27"
     transform="translate(0,-2.1927655)" /><g
     id="g29"
     transform="translate(0,-2.1927655)" /><g
     id="g31"
     transform="translate(0,-2.1927655)" /><g
     id="g33"
     transform="translate(0,-2.1927655)" /><g
     id="g35"
     transform="translate(0,-2.1927655)" /><g
     id="g37"
     transform="translate(0,-2.1927655)" /><g
     id="g4162"><rect
       ry="0.25091213"
       y="-0.14282429"
       x="0"
       height="93.490219"
       width="120.11896"
       id="rect4171"
       style="opacity:1;fill:#bdc3c7;fill-opacity:1;stroke:none;stroke-width:3;stroke-miterlimit:4;stroke-dasharray:none;stroke-opacity:1" /><g
       transform="matrix(0.81929198,0,0,0.88698499,11.730571,1.2857716)"
       id="g4181"><path
         style="opacity:1;fill:#ffffff;fill-opacity:1;stroke:none;stroke-width:3;stroke-miterlimit:4;stroke-dasharray:none;stroke-opacity:1"
         d="m 32.673297,13.858246 c -0.03089,0 -0.05568,0.01728 -0.05568,0.03875 l 0,67.841513 c 0,0.02147 0.02479,0.03874 0.05568,0.03874 l 52.630656,0 c 0.03089,0 0.05568,-0.01728 0.05568,-0.03874 l 0,-61.81596 -6.838832,-6.064299 -45.8475,0 z"
         id="rect4175"
         inkscape:connector-curvature="0" /><g
         id="g3"
         transform="matrix(0.33757474,0,0,0.31406793,42.396263,37.654433)"><g
           id="g5"><path
             d="M 72.766,74.275 C 59.4,63.824 68.833,20.837 68.833,20.837 c 0,0 14.631,0 16.336,0 1.705,0 8.389,-1.072 8.389,-9.076 0,-9.846 -8.168,-9.241 -8.168,-9.241 0,0 -44.774,0 -60.147,0 -9.873,0 -18.784,11.304 -23.899,19.389 -2.723,4.318 -1.183,5.528 3.493,3.493 16.392,-7.178 21.012,-4.593 21.012,-4.593 1.155,5.528 1.54,30.473 -2.667,40.318 -4.263,9.269 -12.128,21.012 -0.578,27.915 9.021,5.115 18.481,-5.391 17.546,-23.268 -0.44,-9.461 -1.183,-44.938 -1.183,-44.938 l 15.072,0 c -0.469,5.528 -3.025,33.745 -0.357,50.467 2.777,27.915 33.112,22.497 38.777,6.685 1.402,-4.373 1.073,-7.729 0.027,-10.26 -1.926,-4.702 -5.144,-4.949 -4.785,-2.75 0.221,1.402 0.083,2.777 -0.138,4.016 -0.661,3.823 -8.471,9.817 -14.797,5.281 z"
             id="path7"
             inkscape:connector-curvature="0"
             style="fill:#006df0" /></g></g></g><rect
       style="opacity:0.3;fill:#000000;fill-opacity:1;stroke:none;stroke-width:3;stroke-miterlimit:4;stroke-dasharray:none;stroke-opacity:1"
       id="rect4173"
       width="60.961613"
       height="93.490219"
       x="59.157345"
       y="-0.14282429"
       ry="0.25091213" /></g></svg>