<?xml version="1.0" encoding="UTF-8" standalone="no"?>
<!-- Generator: Adobe Illustrator 19.0.0, SVG Export Plug-In . SVG Version: 6.00 Build 0)  -->

<svg
   xmlns:dc="http://purl.org/dc/elements/1.1/"
   xmlns:cc="http://creativecommons.org/ns#"
   xmlns:rdf="http://www.w3.org/1999/02/22-rdf-syntax-ns#"
   xmlns:svg="http://www.w3.org/2000/svg"
   xmlns="http://www.w3.org/2000/svg"
   xmlns:sodipodi="http://sodipodi.sourceforge.net/DTD/sodipodi-0.dtd"
   xmlns:inkscape="http://www.inkscape.org/namespaces/inkscape"
   version="1.1"
   id="Layer_1"
   x="0px"
   y="0px"
   viewBox="0 0 650 500"
   xml:space="preserve"
   inkscape:version="0.91 r"
   sodipodi:docname="deal.svg"
   width="650"
   height="500"><metadata
     id="metadata89"><rdf:RDF><cc:Work
         rdf:about=""><dc:format>image/svg+xml</dc:format><dc:type
           rdf:resource="http://purl.org/dc/dcmitype/StillImage" /><dc:title></dc:title></cc:Work></rdf:RDF></metadata><defs
     id="defs87" /><sodipodi:namedview
     pagecolor="#ffffff"
     bordercolor="#666666"
     borderopacity="1"
     objecttolerance="10"
     gridtolerance="10"
     guidetolerance="10"
     inkscape:pageopacity="0"
     inkscape:pageshadow="2"
     inkscape:window-width="1366"
     inkscape:window-height="719"
     id="namedview85"
     showgrid="false"
     width="450px"
     inkscape:zoom="0.47580645"
     inkscape:cx="-199.66102"
     inkscape:cy="-29.220337"
     inkscape:window-x="0"
     inkscape:window-y="26"
     inkscape:window-maximized="1"
     inkscape:current-layer="Layer_1" /><rect
     style="opacity:1;fill:#f7ca18;fill-opacity:1;stroke:none;stroke-width:3;stroke-miterlimit:4;stroke-dasharray:none;stroke-opacity:1"
     id="rect4245"
     width="659.93219"
     height="506.50848"
     x="-2.1016948"
     y="-0.20338982" /><g
     id="g4217"
     transform="matrix(0.83474577,0,0,0.72496537,120.84745,62.766422)"><polygon
       transform="translate(0,4)"
       id="polygon3"
       points="0,45.678 0,278.478 35.2,300.878 142.4,132.078 0,41.678 "
       style="fill:#05365b" /><polygon
       transform="translate(0,4)"
       id="polygon5"
       points="496,41.678 353.6,132.078 460.8,300.878 496,278.478 496,45.678 "
       style="fill:#008c61" /><g
       transform="translate(0,4)"
       id="g7"><path
         inkscape:connector-curvature="0"
         id="path9"
         d="m 404,335.278 c 30.4,-19.2 38.4,-60.8 17.6,-92.8 l -25.6,-40 c -20.8,-32 -61.6,-42.4 -92,-23.2 l -91.2,57.6 c -30.4,19.2 -38.4,60.8 -17.6,92.8 l 25.6,40 c 20.8,32 61.6,42.4 92,23.2 l 91.2,-57.6 z"
         style="fill:#e29d81" /><path
         inkscape:connector-curvature="0"
         id="path11"
         d="m 392.8,342.478 c 11.2,-7.2 14.4,-22.4 7.2,-33.6 l 0,0 c -7.2,-11.2 -22.4,-14.4 -33.6,-7.2 l -168,106.4 c -11.2,7.2 -14.4,22.4 -7.2,33.6 l 0,0 c 7.2,11.2 22.4,14.4 33.6,7.2 l 168,-106.4 z"
         style="fill:#e29d81" /></g><path
       inkscape:connector-curvature="0"
       id="path13"
       d="m 196,333.678 25.6,40 c 20.8,32 61.6,42.4 92,23.2 l 91.2,-57.6 c 30.4,-19.2 38.4,-60.8 17.6,-92.8 l -25.6,-40"
       style="fill:#d3856a" /><g
       transform="translate(0,4)"
       id="g15"><path
         inkscape:connector-curvature="0"
         id="path17"
         d="m 288.8,303.278 c 11.2,-7.2 14.4,-22.4 7.2,-33.6 l 0,0 c -7.2,-11.2 -22.4,-14.4 -33.6,-7.2 l -168,107.2 c -11.2,7.2 -14.4,22.4 -7.2,33.6 l 0,0 c 7.2,11.2 22.4,14.4 33.6,7.2 l 168,-107.2 z"
         style="fill:#e29d81" /><path
         inkscape:connector-curvature="0"
         id="path19"
         d="m 324,335.278 c 11.2,-7.2 14.4,-22.4 7.2,-33.6 l 0,0 c -7.2,-11.2 -22.4,-14.4 -33.6,-7.2 l -168,107.2 c -11.2,7.2 -14.4,22.4 -7.2,33.6 l 0,0 c 7.2,11.2 22.4,14.4 33.6,7.2 l 168,-107.2 z"
         style="fill:#e29d81" /><path
         inkscape:connector-curvature="0"
         id="path21"
         d="m 288,248.078 c 11.2,-7.2 14.4,-22.4 7.2,-33.6 l 0,0 c -7.2,-11.2 -22.4,-14.4 -33.6,-7.2 l -168,107.2 c -11.2,7.2 -14.4,22.4 -7.2,33.6 l 0,0 c 7.2,11.2 22.4,14.4 33.6,7.2 l 168,-107.2 z"
         style="fill:#e29d81" /><path
         inkscape:connector-curvature="0"
         id="path23"
         d="m 321.6,171.278 c 0,0 -94.4,13.6 -102.4,16 -7.2,2.4 -29.6,56.8 -4,63.2 26.4,6.4 68,-27.2 68,-27.2 l 38.4,-52 z"
         style="fill:#e29d81" /></g><rect
       id="rect25"
       height="172.81824"
       width="29.60358"
       style="fill:#ffffff"
       transform="matrix(0.84385495,-0.53657136,0.53657136,0.84385495,0,0)"
       y="320.91693"
       x="204.38629" /><polyline
       transform="translate(0,4)"
       id="polyline27"
       points="369.6,141.678 344.8,157.678 437.6,303.278 "
       style="fill:#dfe2e5" /><polyline
       transform="translate(0,4)"
       id="polyline29"
       points="496,41.678 353.6,132.078 460.8,300.878 "
       style="fill:#006d49" /><path
       inkscape:connector-curvature="0"
       id="path31"
       d="m 401.6,372.878 -15.2,-9.6 c 8.8,0.8 18.4,-3.2 23.2,-11.2 7.2,-11.2 4,-26.4 -7.2,-33.6 l -112,-71.2 c 8,-16.8 -8,-52.8 -13.6,-55.2 -7.2,-2.4 -93.6,-14.4 -101.6,-16 -27.2,-8 -58.4,4 -75.2,30.4 l -25.6,40 c -20.8,32 -12.8,73.6 17.6,92.8 l 7.2,4.8 c 0.8,0.8 2.4,2.4 4,3.2 l 168,107.2 c 11.2,7.2 26.4,4 33.6,-7.2 4,-6.4 4.8,-13.6 2.4,-20 l 32,20.8 c 11.2,7.2 26.4,4 33.6,-7.2 5.6,-8 4.8,-18.4 0,-25.6 l 1.6,0.8 c 11.2,7.2 26.4,4 33.6,-7.2 8.8,-13.6 5.6,-28.8 -6.4,-36 z"
       style="fill:#f9bda0" /><g
       transform="translate(0,4)"
       id="g33"><path
         inkscape:connector-curvature="0"
         id="path35"
         d="m 279.2,440.878 c -4.8,-3.2 -6.4,-8.8 -3.2,-13.6 l 3.2,-5.6 c 3.2,-4.8 8.8,-6.4 13.6,-3.2 l 0,0 c 4.8,3.2 6.4,8.8 3.2,13.6 l -3.2,5.6 c -2.4,4.8 -8.8,6.4 -13.6,3.2 l 0,0 z"
         style="fill:#ffe4c7" /><path
         inkscape:connector-curvature="0"
         id="path37"
         d="m 383.2,401.678 c -4.8,-3.2 -6.4,-8.8 -3.2,-13.6 l 3.2,-5.6 c 3.2,-4.8 8.8,-6.4 13.6,-3.2 l 0,0 c 4.8,3.2 6.4,8.8 3.2,13.6 l -3.2,5.6 c -2.4,4.8 -8.8,6.4 -13.6,3.2 l 0,0 z"
         style="fill:#ffe4c7" /><path
         inkscape:connector-curvature="0"
         id="path39"
         d="m 348,433.678 c -4.8,-3.2 -6.4,-8.8 -3.2,-13.6 l 3.2,-5.6 c 3.2,-4.8 8.8,-6.4 13.6,-3.2 l 0,0 c 4.8,3.2 6.4,8.8 3.2,13.6 l -3.2,5.6 c -3.2,4.8 -8.8,6.4 -13.6,3.2 l 0,0 z"
         style="fill:#ffe4c7" /><path
         inkscape:connector-curvature="0"
         id="path41"
         d="m 384,347.278 c -4.8,-3.2 -6.4,-8.8 -3.2,-13.6 l 3.2,-5.6 c 3.2,-4.8 8.8,-6.4 13.6,-3.2 l 0,0 c 4.8,3.2 6.4,8.8 3.2,13.6 l -2.4,5.6 c -3.2,4.8 -9.6,5.6 -14.4,3.2 l 0,0 z"
         style="fill:#ffe4c7" /></g><rect
       id="rect43"
       height="172.79996"
       width="29.599993"
       style="fill:#ffffff"
       transform="matrix(-0.84390023,-0.53650014,0.53650014,-0.84390023,0,0)"
       y="-228.00235"
       x="-214.17867" /><polyline
       transform="translate(0,4)"
       id="polyline45"
       points="126.4,141.678 151.2,157.678 58.4,303.278 "
       style="fill:#dfe2e5" /><polyline
       transform="translate(0,4)"
       id="polyline47"
       points="0,41.678 142.4,132.078 35.2,300.878 "
       style="fill:#00263d" /><path
       inkscape:connector-curvature="0"
       id="path49"
       d="m 56,199.278 c -4.8,8 -15.2,9.6 -22.4,4.8 -8,-4.8 -9.6,-15.2 -4.8,-22.4 4.8,-8 15.2,-9.6 22.4,-4.8 7.2,4.8 9.6,15.2 4.8,22.4 z"
       style="fill:#ffc114" /><path
       inkscape:connector-curvature="0"
       id="path51"
       d="m 402.4,317.678 -112,-71.2 c 8,-16.8 -8,-52.8 -13.6,-55.2 -3.2,-1.6 -25.6,-4.8 -48.8,-8 l -25.6,80 210.4,67.2 c -1.6,-4.8 -4.8,-9.6 -10.4,-12.8 z"
       style="fill:#e8ab92" /><path
       inkscape:connector-curvature="0"
       id="path53"
       d="m 296,196.878 c 7.2,12 10.4,43.2 0.8,48.8 l -80.8,17.6 c -9.6,5.6 -22.4,0 -29.6,-11.2 l 0,0 c -7.2,-12 -4.8,-25.6 4.8,-31.2 l 57.6,-33.6 c 9.6,-5.6 39.2,-4 46.4,7.2 l 0.8,2.4 z"
       style="fill:#e29d81" /></g><g
     id="g55"
     transform="translate(0,4)" /><g
     id="g57"
     transform="translate(0,4)" /><g
     id="g59"
     transform="translate(0,4)" /><g
     id="g61"
     transform="translate(0,4)" /><g
     id="g63"
     transform="translate(0,4)" /><g
     id="g65"
     transform="translate(0,4)" /><g
     id="g67"
     transform="translate(0,4)" /><g
     id="g69"
     transform="translate(0,4)" /><g
     id="g71"
     transform="translate(0,4)" /><g
     id="g73"
     transform="translate(0,4)" /><g
     id="g75"
     transform="translate(0,4)" /><g
     id="g77"
     transform="translate(0,4)" /><g
     id="g79"
     transform="translate(0,4)" /><g
     id="g81"
     transform="translate(0,4)" /><g
     id="g83"
     transform="translate(0,4)" /><rect
     y="-0.20338982"
     x="321.55933"
     height="506.50848"
     width="336.27118"
     id="rect4175"
     style="opacity:0.3;fill:#000000;fill-opacity:1;stroke:none;stroke-width:3;stroke-miterlimit:4;stroke-dasharray:none;stroke-opacity:1" /></svg>