<?xml version="1.0" encoding="UTF-8" standalone="no"?>
<!-- Generator: Adobe Illustrator 19.0.0, SVG Export Plug-In . SVG Version: 6.00 Build 0)  -->

<svg
   xmlns:dc="http://purl.org/dc/elements/1.1/"
   xmlns:cc="http://creativecommons.org/ns#"
   xmlns:rdf="http://www.w3.org/1999/02/22-rdf-syntax-ns#"
   xmlns:svg="http://www.w3.org/2000/svg"
   xmlns="http://www.w3.org/2000/svg"
   xmlns:sodipodi="http://sodipodi.sourceforge.net/DTD/sodipodi-0.dtd"
   xmlns:inkscape="http://www.inkscape.org/namespaces/inkscape"
   version="1.1"
   id="Layer_1"
   x="0px"
   y="0px"
   viewBox="0 0 650 500"
   xml:space="preserve"
   inkscape:version="0.91 r"
   sodipodi:docname="decision.svg"
   width="650"
   height="500"><metadata
     id="metadata71"><rdf:RDF><cc:Work
         rdf:about=""><dc:format>image/svg+xml</dc:format><dc:type
           rdf:resource="http://purl.org/dc/dcmitype/StillImage" /><dc:title></dc:title></cc:Work></rdf:RDF></metadata><defs
     id="defs69" /><sodipodi:namedview
     pagecolor="#ffffff"
     bordercolor="#666666"
     borderopacity="1"
     objecttolerance="10"
     gridtolerance="10"
     guidetolerance="10"
     inkscape:pageopacity="0"
     inkscape:pageshadow="2"
     inkscape:window-width="1366"
     inkscape:window-height="719"
     id="namedview67"
     showgrid="false"
     inkscape:zoom="0.46456693"
     inkscape:cx="-71.033898"
     inkscape:cy="-17.830509"
     inkscape:window-x="0"
     inkscape:window-y="26"
     inkscape:window-maximized="1"
     inkscape:current-layer="Layer_1" /><rect
     style="opacity:1;fill:#049372;fill-opacity:1;stroke:none;stroke-width:3;stroke-miterlimit:4;stroke-dasharray:none;stroke-opacity:1"
     id="rect4219"
     width="662.98303"
     height="508"
     x="-4.3050847"
     y="-1.5423728"
     ry="0.25003001" /><g
     id="g4199"
     transform="translate(73.186435,25.830508)"><g
       transform="translate(0,-8)"
       id="g5"><path
         inkscape:connector-curvature="0"
         id="path7"
         d="m 221.2,314.8 0,22 c -1.2,-0.4 -2.8,-0.4 -4,-0.4 -1.2,0 -2.8,0 -4,0.4 l 0,-18 -52.8,0 0,18 c -1.2,-0.4 -2.8,-0.4 -4,-0.4 -1.2,0 -2.8,0 -4,0.4 l 0,-18 -52.8,0 0,18 c -1.2,-0.4 -2.8,-0.4 -4,-0.4 -1.2,0 -2.8,0 -4,0.4 l 0,-22 c 0,-2 1.6,-4 4,-4 l 56.8,0 0,-32.4 c 1.2,0.4 2.8,0.4 4,0.4 1.2,0 2.8,0 4,-0.4 l 0,32.4 56.8,0 c 2,0 4,2 4,4 z"
         style="fill:#e6e9ee" /><path
         inkscape:connector-curvature="0"
         id="path9"
         d="m 355.6,209.2 0,22.8 c -1.2,-0.4 -2.8,-0.4 -4,-0.4 -1.2,0 -2.8,0 -4,0.4 l 0,-19.6 -187.2,0 0,19.6 c -1.2,-0.4 -2.8,-0.4 -4,-0.4 -1.2,0 -2.8,0 -4,0.4 l 0,-22.8 c 0,-2.8 2,-4.8 4.8,-4.8 l 92.8,0 0,-47.2 c 1.2,0 2.8,0 4,0 1.2,0 2.8,0 4,0 l 0,47.6 92.8,0 c 2.8,-0.4 4.8,2 4.8,4.4 z"
         style="fill:#e6e9ee" /><path
         inkscape:connector-curvature="0"
         id="path11"
         d="m 416.4,314.8 0,22 c -1.2,-0.4 -2.8,-0.4 -4,-0.4 -1.2,0 -2.8,0 -4,0.4 l 0,-18 -52.8,0 0,18 c -1.2,-0.4 -2.8,-0.4 -4,-0.4 -1.2,0 -2.8,0 -4,0.4 l 0,-18 -52.8,0 0,18 c -1.2,-0.4 -2.8,-0.4 -4,-0.4 -1.2,0 -2.8,0 -4,0.4 l 0,-22 c 0,-2 1.6,-4 4,-4 l 56.8,0 0,-32.4 c 1.2,0.4 2.8,0.4 4,0.4 1.2,0 2.8,0 4,-0.4 l 0,32.4 56.8,0 c 2,0 4,2 4,4 z"
         style="fill:#e6e9ee" /></g><circle
       id="circle13"
       r="48"
       cy="101.2"
       cx="254"
       style="fill:#ffffff" /><circle
       id="circle15"
       r="26.4"
       cy="101.2"
       cx="254"
       style="fill:#ff7058" /><circle
       id="circle17"
       r="23.6"
       cy="247.2"
       cx="351.60001"
       style="fill:#4cdbc4" /><circle
       id="circle19"
       r="23.6"
       cy="247.2"
       cx="156.39999"
       style="fill:#84dbff" /><g
       transform="translate(0,-8)"
       id="g21"><circle
         id="circle23"
         r="21.200001"
         cy="357.60001"
         cx="217.2"
         style="fill:#ff7058" /><circle
         id="circle25"
         r="21.200001"
         cy="357.60001"
         cx="156.39999"
         style="fill:#ff7058" /><circle
         id="circle27"
         r="21.200001"
         cy="357.60001"
         cx="95.599998"
         style="fill:#ff7058" /></g><g
       transform="translate(0,-8)"
       id="g29"><circle
         id="circle31"
         r="21.200001"
         cy="357.60001"
         cx="412.39999"
         style="fill:#ffd05b" /><circle
         id="circle33"
         r="21.200001"
         cy="357.60001"
         cx="351.60001"
         style="fill:#ffd05b" /><circle
         id="circle35"
         r="21.200001"
         cy="357.60001"
         cx="290.79999"
         style="fill:#ffd05b" /></g></g><g
     id="g37"
     transform="translate(0,-8)" /><g
     id="g39"
     transform="translate(0,-8)" /><g
     id="g41"
     transform="translate(0,-8)" /><g
     id="g43"
     transform="translate(0,-8)" /><g
     id="g45"
     transform="translate(0,-8)" /><g
     id="g47"
     transform="translate(0,-8)" /><g
     id="g49"
     transform="translate(0,-8)" /><g
     id="g51"
     transform="translate(0,-8)" /><g
     id="g53"
     transform="translate(0,-8)" /><g
     id="g55"
     transform="translate(0,-8)" /><g
     id="g57"
     transform="translate(0,-8)" /><g
     id="g59"
     transform="translate(0,-8)" /><g
     id="g61"
     transform="translate(0,-8)" /><g
     id="g63"
     transform="translate(0,-8)" /><g
     id="g65"
     transform="translate(0,-8)" /><rect
     ry="0.25003001"
     y="-1.5423728"
     x="327.84747"
     height="508"
     width="329.33896"
     id="rect4221"
     style="opacity:0.3;fill:#000000;fill-opacity:1;stroke:none;stroke-width:3;stroke-miterlimit:4;stroke-dasharray:none;stroke-opacity:1" /></svg>