<?xml version="1.0" encoding="UTF-8" standalone="no"?>
<!-- Generator: Adobe Illustrator 19.0.0, SVG Export Plug-In . SVG Version: 6.00 Build 0)  -->

<svg
   xmlns:dc="http://purl.org/dc/elements/1.1/"
   xmlns:cc="http://creativecommons.org/ns#"
   xmlns:rdf="http://www.w3.org/1999/02/22-rdf-syntax-ns#"
   xmlns:svg="http://www.w3.org/2000/svg"
   xmlns="http://www.w3.org/2000/svg"
   xmlns:sodipodi="http://sodipodi.sourceforge.net/DTD/sodipodi-0.dtd"
   xmlns:inkscape="http://www.inkscape.org/namespaces/inkscape"
   version="1.1"
   id="Layer_1"
   x="0px"
   y="0px"
   viewBox="0 0 650 500"
   xml:space="preserve"
   inkscape:version="0.91 r"
   sodipodi:docname="function.svg"
   width="650"
   height="500"><metadata
     id="metadata45"><rdf:RDF><cc:Work
         rdf:about=""><dc:format>image/svg+xml</dc:format><dc:type
           rdf:resource="http://purl.org/dc/dcmitype/StillImage" /><dc:title></dc:title></cc:Work></rdf:RDF></metadata><defs
     id="defs43" /><sodipodi:namedview
     pagecolor="#ffffff"
     bordercolor="#666666"
     borderopacity="1"
     objecttolerance="10"
     gridtolerance="10"
     guidetolerance="10"
     inkscape:pageopacity="0"
     inkscape:pageshadow="2"
     inkscape:window-width="1366"
     inkscape:window-height="719"
     id="namedview41"
     showgrid="false"
     inkscape:zoom="0.4609375"
     inkscape:cx="-17.355932"
     inkscape:cy="256"
     inkscape:window-x="0"
     inkscape:window-y="26"
     inkscape:window-maximized="1"
     inkscape:current-layer="Layer_1" /><g
     id="g11"
     transform="translate(0,-12)" /><g
     id="g13"
     transform="translate(0,-12)" /><g
     id="g15"
     transform="translate(0,-12)" /><g
     id="g17"
     transform="translate(0,-12)" /><g
     id="g19"
     transform="translate(0,-12)" /><g
     id="g21"
     transform="translate(0,-12)" /><g
     id="g23"
     transform="translate(0,-12)" /><g
     id="g25"
     transform="translate(0,-12)" /><g
     id="g27"
     transform="translate(0,-12)" /><g
     id="g29"
     transform="translate(0,-12)" /><g
     id="g31"
     transform="translate(0,-12)" /><g
     id="g33"
     transform="translate(0,-12)" /><g
     id="g35"
     transform="translate(0,-12)" /><g
     id="g37"
     transform="translate(0,-12)" /><g
     id="g39"
     transform="translate(0,-12)" /><rect
     style="opacity:1;fill:#e08283;fill-opacity:1;stroke:none;stroke-width:3;stroke-miterlimit:4;stroke-dasharray:none;stroke-opacity:1"
     id="rect4173"
     width="657.35596"
     height="507.66101"
     x="0"
     y="-1.1525424" /><path
     style="fill:#ffffff"
     d="m 298.76435,441.89546 -44.522,0 c -21.478,0 -38.957,-17.478 -38.957,-38.957 l 0,-109.95599 -28.499,-28.499 c -6.521,-6.521 -6.521,-17.087 0,-23.609 l 28.499,-28.501 0,-109.95601 c 0,-21.477995 17.478,-38.956995 38.957,-38.956995 l 44.522,0 c 9.217,0 16.696,7.479 16.696,16.696 0,9.216998 -7.479,16.695998 -16.696,16.695998 l -44.522,0 c -3.065,0 -5.565,2.5 -5.565,5.564997 l 0,116.87001 c 0,4.424 -1.761,8.674 -4.892,11.804 l -21.586,21.587 21.587,21.587 c 3.13,3.13 4.891,7.379 4.891,11.804 l 0,116.86999 c 0,3.065 2.5,5.565 5.565,5.565 l 44.522,0 c 9.217,0 16.696,7.479 16.696,16.696 0,9.217 -7.479,16.695 -16.696,16.695 z"
     id="path7"
     inkscape:connector-curvature="0" /><path
     inkscape:connector-curvature="0"
     id="path4177"
     d="m 358.5916,441.89546 44.522,0 c 21.478,0 38.957,-17.478 38.957,-38.957 l 0,-109.95599 28.499,-28.499 c 6.521,-6.521 6.521,-17.087 0,-23.609 l -28.499,-28.501 0,-109.95601 c 0,-21.477994 -17.478,-38.956994 -38.957,-38.956994 l -44.522,0 c -9.217,0 -16.696,7.479 -16.696,16.696 0,9.216998 7.479,16.695998 16.696,16.695998 l 44.522,0 c 3.065,0 5.565,2.5 5.565,5.564996 l 0,116.87001 c 0,4.424 1.761,8.674 4.892,11.804 l 21.586,21.587 -21.587,21.587 c -3.13,3.13 -4.891,7.379 -4.891,11.804 l 0,116.86999 c 0,3.065 -2.5,5.565 -5.565,5.565 l -44.522,0 c -9.217,0 -16.696,7.479 -16.696,16.696 0,9.217 7.479,16.695 16.696,16.695 z"
     style="fill:#ffffff" /><rect
     y="-1.1525424"
     x="327.59323"
     height="507.66101"
     width="329.76273"
     id="rect4175"
     style="opacity:0.3;fill:#000000;fill-opacity:1;stroke:none;stroke-width:3;stroke-miterlimit:4;stroke-dasharray:none;stroke-opacity:1" /></svg>