<?xml version="1.0" encoding="UTF-8" standalone="no"?>
<!-- Generator: Adobe Illustrator 19.0.0, SVG Export Plug-In . SVG Version: 6.00 Build 0)  -->

<svg
   xmlns:dc="http://purl.org/dc/elements/1.1/"
   xmlns:cc="http://creativecommons.org/ns#"
   xmlns:rdf="http://www.w3.org/1999/02/22-rdf-syntax-ns#"
   xmlns:svg="http://www.w3.org/2000/svg"
   xmlns="http://www.w3.org/2000/svg"
   xmlns:sodipodi="http://sodipodi.sourceforge.net/DTD/sodipodi-0.dtd"
   xmlns:inkscape="http://www.inkscape.org/namespaces/inkscape"
   version="1.1"
   id="Layer_1"
   x="0px"
   y="0px"
   viewBox="0 0 650.00001 500.00001"
   xml:space="preserve"
   inkscape:version="0.91 r"
   sodipodi:docname="install.svg"
   width="650"
   height="500"><metadata
     id="metadata91"><rdf:RDF><cc:Work
         rdf:about=""><dc:format>image/svg+xml</dc:format><dc:type
           rdf:resource="http://purl.org/dc/dcmitype/StillImage" /><dc:title></dc:title></cc:Work></rdf:RDF></metadata><defs
     id="defs89" /><sodipodi:namedview
     pagecolor="#ffffff"
     bordercolor="#666666"
     borderopacity="1"
     objecttolerance="10"
     gridtolerance="10"
     guidetolerance="10"
     inkscape:pageopacity="0"
     inkscape:pageshadow="2"
     inkscape:window-width="1366"
     inkscape:window-height="719"
     id="namedview87"
     showgrid="false"
     inkscape:zoom="0.46093841"
     inkscape:cx="33.627056"
     inkscape:cy="229.68963"
     inkscape:window-x="0"
     inkscape:window-y="26"
     inkscape:window-maximized="1"
     inkscape:current-layer="Layer_1" /><rect
     style="opacity:1;fill:#3a539b;fill-opacity:1;stroke:none;stroke-width:3;stroke-miterlimit:4;stroke-dasharray:none;stroke-opacity:1"
     id="rect4219"
     width="657.35461"
     height="509.8295"
     x="0"
     y="-1.1515566" /><g
     id="g4221"
     transform="matrix(0.63983059,0,0,0.64962371,164.88071,84.814218)"><g
       transform="translate(0,-11.998996)"
       id="g3"><path
         inkscape:connector-curvature="0"
         id="path5"
         d="M 370.885,327.27 186.862,143.248 c -3.123,-3.124 -8.188,-3.124 -11.312,0 l -30.169,30.167 c -1.501,1.5 -2.343,3.535 -2.343,5.656 0,2.121 0.843,4.157 2.343,5.656 l 184.023,184.024 c 1.5,1.501 3.535,2.343 5.656,2.343 2.121,0 4.157,-0.843 5.656,-2.343 l 30.167,-30.169 c 3.126,-3.123 3.126,-8.188 0.002,-11.312 z"
         style="fill:#cdd4d5" /><path
         inkscape:connector-curvature="0"
         id="path7"
         d="M 214.012,73.862 144.626,4.476 c -3.124,-3.124 -8.189,-3.124 -11.313,0 l -30.166,30.167 c -3.124,3.124 -3.124,8.189 0,11.312 l 51.662,51.662 -55.056,55.056 -51.663,-51.66 c -3.124,-3.124 -8.189,-3.124 -11.312,0 L 6.61,131.18 c -3.124,3.124 -3.124,8.189 0,11.312 l 69.386,69.386 c 1.507,1.507 3.544,2.343 5.656,2.343 0.241,0 0.483,-0.011 0.725,-0.033 l 66.37,-6.034 c 1.863,-0.17 3.608,-0.987 4.932,-2.31 l 54.302,-54.302 c 1.324,-1.324 2.141,-3.069 2.31,-4.932 l 6.034,-66.37 c 0.213,-2.363 -0.634,-4.701 -2.313,-6.378 z"
         style="fill:#cdd4d5" /></g><path
       inkscape:connector-curvature="0"
       id="path9"
       d="m 167.172,64.538004 c -2.047,0 -4.095,-0.781 -5.656,-2.343 l -21.332,-21.332 c -3.124,-3.124 -3.124,-8.189 0,-11.312 3.124,-3.124 8.189,-3.124 11.312,0 l 21.332,21.332 c 3.124,3.124 3.124,8.189 0,11.312 -1.562,1.562 -3.609,2.343 -5.656,2.343 z"
       style="fill:#ffffff" /><path
       inkscape:connector-curvature="0"
       id="path11"
       d="m 509.657,357.507 -69.386,-69.386 c -1.679,-1.679 -4.017,-2.525 -6.38,-2.31 l -66.37,6.034 c -1.863,0.17 -3.608,0.987 -4.932,2.31 l -54.302,54.302 c -1.324,1.324 -2.141,3.069 -2.31,4.932 l -6.034,66.37 c -0.215,2.365 0.631,4.703 2.31,6.38 l 69.386,69.386 c 1.561,1.561 3.609,2.343 5.656,2.343 2.047,0 4.095,-0.781 5.656,-2.343 l 30.167,-30.167 c 3.124,-3.124 3.124,-8.189 0,-11.312 l -51.662,-51.662 55.056,-55.056 51.662,51.662 c 3.124,3.124 8.189,3.124 11.312,0 l 30.167,-30.167 c 3.128,-3.128 3.128,-8.193 0.004,-11.316 z"
       style="fill:#cdd4d5" /><path
       inkscape:connector-curvature="0"
       id="path13"
       d="m 160.98,145.817 -15.6,15.599 c -1.501,1.5 -2.343,3.535 -2.343,5.656 0,2.121 0.843,4.157 2.343,5.656 l 184.024,184.024 c 1.5,1.501 3.535,2.343 5.656,2.343 2.121,0 4.157,-0.843 5.656,-2.343 l 15.599,-15.6 L 160.98,145.817 Z"
       style="fill:#687f82" /><g
       transform="translate(0,-11.998996)"
       id="g15"><path
         inkscape:connector-curvature="0"
         id="path17"
         d="M 127.796,124.631 99.752,152.675 48.09,101.013 c -3.124,-3.124 -8.189,-3.124 -11.312,0 L 6.61,131.18 c -3.124,3.124 -3.124,8.189 0,11.312 l 69.386,69.386 c 1.507,1.507 3.544,2.343 5.656,2.343 0.241,0 0.483,-0.011 0.725,-0.033 l 66.37,-6.034 c 1.863,-0.17 3.608,-0.987 4.932,-2.31 l 27.666,-27.666 -53.549,-53.547 z"
         style="fill:#9baaab" /><path
         inkscape:connector-curvature="0"
         id="path19"
         d="m 308.287,360.455 c -1.324,1.324 -2.141,3.069 -2.31,4.932 l -6.034,66.37 c -0.215,2.365 0.631,4.703 2.31,6.38 l 69.386,69.386 c 1.561,1.561 3.609,2.343 5.656,2.343 2.047,0 4.095,-0.781 5.656,-2.343 l 30.167,-30.167 c 3.124,-3.124 3.124,-8.189 0,-11.312 L 361.456,414.381 389.5,386.337 335.953,332.79 308.287,360.455 Z"
         style="fill:#9baaab" /></g><g
       transform="translate(0,-11.998996)"
       id="g21"><path
         inkscape:connector-curvature="0"
         id="path23"
         d="m 363.602,145.459 -24.134,-24.135 c -3.124,-3.124 -8.189,-3.124 -11.312,0 l -159.89,159.889 c -3.124,3.124 -3.124,8.189 0,11.313 L 192.4,316.66 c 1.561,1.561 3.609,2.343 5.656,2.343 2.048,0 4.095,-0.781 5.656,-2.343 L 363.601,156.771 c 3.125,-3.124 3.125,-8.189 10e-4,-11.312 z"
         style="fill:#cdd4d5" /><path
         inkscape:connector-curvature="0"
         id="path25"
         d="M 463.155,45.905 439.021,21.77 c -2.358,-2.358 -5.93,-3.007 -8.967,-1.625 l -66.37,30.169 c -0.874,0.397 -1.668,0.947 -2.346,1.625 l -51.283,51.285 c -3.124,3.124 -3.124,8.189 0,11.312 l 60.335,60.335 c 1.561,1.563 3.609,2.343 5.656,2.343 2.047,0 4.095,-0.781 5.656,-2.343 l 51.285,-51.285 c 0.678,-0.678 1.229,-1.473 1.625,-2.346 l 30.167,-66.37 c 1.382,-3.035 0.735,-6.608 -1.624,-8.965 z"
         style="fill:#cdd4d5" /></g><path
       inkscape:connector-curvature="0"
       id="path27"
       d="M 200.696,350.667 122.26,272.231 c -3.124,-3.124 -8.189,-3.124 -11.312,0 l -93.52,93.52 c -3.124,3.124 -3.124,8.189 0,11.313 L 95.864,455.5 c 1.561,1.561 3.609,2.343 5.656,2.343 2.047,0 4.095,-0.781 5.656,-2.343 l 93.52,-93.52 c 3.124,-3.124 3.124,-8.189 0,-11.313 z"
       style="fill:#fd6a33" /><path
       inkscape:connector-curvature="0"
       id="path29"
       d="m 122.26,272.231 c -3.124,-3.124 -8.189,-3.124 -11.312,0 l -93.52,93.52 c -3.124,3.124 -3.124,8.189 0,11.313 L 56.316,415.953 161.149,311.12 122.26,272.231 Z"
       style="fill:#ff8c29" /><g
       transform="translate(0,-11.998996)"
       id="g31"><rect
         id="rect33"
         height="148.255"
         width="15.999"
         style="fill:#365558"
         transform="matrix(-0.7071,-0.7071,0.7071,-0.7071,-79.6002,718.7493)"
         y="301.733"
         x="101.058" /><rect
         id="rect35"
         height="143.98801"
         width="15.999"
         style="fill:#365558"
         transform="matrix(-0.7071,-0.7071,0.7071,-0.7071,-54.8325,768.2274)"
         y="323.47601"
         x="123.689" /></g><g
       transform="translate(0,-11.998996)"
       id="g37"><rect
         id="rect39"
         height="143.98801"
         width="15.999"
         style="fill:#687f82"
         transform="matrix(-0.7071,-0.7071,0.7071,-0.7071,-97.0708,666.2763)"
         y="281.24799"
         x="81.456001" /><rect
         id="rect41"
         height="7.5300002"
         width="148.255"
         style="fill:#687f82"
         transform="matrix(-0.7071,0.7071,-0.7071,-0.7071,444.7211,561.5195)"
         y="369.099"
         x="31.938999" /><path
         inkscape:connector-curvature="0"
         id="path43"
         d="M 351.206,133.062 180.004,304.263 192.4,316.659 c 1.561,1.561 3.609,2.343 5.656,2.343 2.048,0 4.095,-0.781 5.656,-2.343 L 363.602,156.77 c 3.124,-3.124 3.124,-8.189 0,-11.312 l -12.396,-12.396 z"
         style="fill:#687f82" /></g><path
       inkscape:connector-curvature="0"
       id="path45"
       d="m 450.759,21.509004 -110.866,110.867006 30.497,30.497 c 1.561,1.563 3.609,2.343 5.656,2.343 2.047,0 4.095,-0.781 5.656,-2.343 l 51.285,-51.285 c 0.678,-0.678 1.229,-1.473 1.625,-2.346 l 30.167,-66.370006 c 1.38,-3.036 0.733,-6.609 -1.625,-8.967 l -12.395,-12.396 z"
       style="fill:#9baaab" /><path
       inkscape:connector-curvature="0"
       id="path47"
       d="m 74.371,472.927 c 1.327,0 2.663,-0.33 3.882,-1.007 l 27.15,-15.084 -89.314,-89.313 -15.082,27.151 c -1.734,3.122 -1.189,7.016 1.336,9.541 l 66.37,66.369 c 1.539,1.54 3.587,2.343 5.658,2.343 z"
       style="fill:#ff8c29" /><path
       inkscape:connector-curvature="0"
       id="path49"
       d="M 16.091,367.523 1.007,394.674 c -1.734,3.122 -1.189,7.016 1.336,9.541 l 32.855,32.855 25.22,-25.22 -44.327,-44.327 z"
       style="fill:#ffd1a9" /><path
       inkscape:connector-curvature="0"
       id="path51"
       d="m 164.495,254.131 c -2.312,-2.311 -5.8,-2.984 -8.808,-1.696 l -42.235,18.101 88.94,88.94 18.101,-42.235 c 1.288,-3.007 0.617,-6.494 -1.696,-8.808 l -54.302,-54.302 z"
       style="fill:#ff8c29" /><path
       inkscape:connector-curvature="0"
       id="path53"
       d="m 164.495,254.131 c -2.312,-2.311 -5.8,-2.984 -8.808,-1.696 l -42.235,18.101 44.141,44.141 33.723,-33.723 -26.821,-26.823 z"
       style="fill:#ffd1a9" /><path
       inkscape:connector-curvature="0"
       id="path55"
       d="m 353.575,105.36101 c -2.047,0 -4.095,-0.781 -5.656,-2.343 -3.124,-3.124003 -3.124,-8.189003 0,-11.312003 l 25.598,-25.598003 c 3.124,-3.124 8.189,-3.124 11.312,0 3.124,3.124 3.124,8.189 0,11.312 l -25.598,25.598006 c -1.562,1.561 -3.608,2.343 -5.656,2.343 z"
       style="fill:#ffffff" /></g><g
     id="g57"
     transform="translate(0,-11.998996)" /><g
     id="g59"
     transform="translate(0,-11.998996)" /><g
     id="g61"
     transform="translate(0,-11.998996)" /><g
     id="g63"
     transform="translate(0,-11.998996)" /><g
     id="g65"
     transform="translate(0,-11.998996)" /><g
     id="g67"
     transform="translate(0,-11.998996)" /><g
     id="g69"
     transform="translate(0,-11.998996)" /><g
     id="g71"
     transform="translate(0,-11.998996)" /><g
     id="g73"
     transform="translate(0,-11.998996)" /><g
     id="g75"
     transform="translate(0,-11.998996)" /><g
     id="g77"
     transform="translate(0,-11.998996)" /><g
     id="g79"
     transform="translate(0,-11.998996)" /><g
     id="g81"
     transform="translate(0,-11.998996)" /><g
     id="g83"
     transform="translate(0,-11.998996)" /><g
     id="g85"
     transform="translate(0,-11.998996)" /><rect
     y="-1.1515566"
     x="321.08411"
     height="509.8295"
     width="336.27051"
     id="rect4176"
     style="opacity:0.3;fill:#000000;fill-opacity:1;stroke:none;stroke-width:3;stroke-miterlimit:4;stroke-dasharray:none;stroke-opacity:1" /></svg>