<?xml version="1.0" encoding="UTF-8" standalone="no"?>
<!-- Generator: Adobe Illustrator 18.1.1, SVG Export Plug-In . SVG Version: 6.00 Build 0)  -->

<svg
   xmlns:dc="http://purl.org/dc/elements/1.1/"
   xmlns:cc="http://creativecommons.org/ns#"
   xmlns:rdf="http://www.w3.org/1999/02/22-rdf-syntax-ns#"
   xmlns:svg="http://www.w3.org/2000/svg"
   xmlns="http://www.w3.org/2000/svg"
   xmlns:sodipodi="http://sodipodi.sourceforge.net/DTD/sodipodi-0.dtd"
   xmlns:inkscape="http://www.inkscape.org/namespaces/inkscape"
   version="1.1"
   id="Capa_1"
   x="0px"
   y="0px"
   viewBox="0 0 114.25781 87.890625"
   xml:space="preserve"
   width="650"
   height="500"
   inkscape:version="0.91 r"
   sodipodi:docname="loop-arrow.svg"><metadata
     id="metadata41"><rdf:RDF><cc:Work
         rdf:about=""><dc:format>image/svg+xml</dc:format><dc:type
           rdf:resource="http://purl.org/dc/dcmitype/StillImage" /><dc:title></dc:title></cc:Work></rdf:RDF></metadata><defs
     id="defs39" /><sodipodi:namedview
     pagecolor="#ffffff"
     bordercolor="#666666"
     borderopacity="1"
     objecttolerance="10"
     gridtolerance="10"
     guidetolerance="10"
     inkscape:pageopacity="0"
     inkscape:pageshadow="2"
     inkscape:window-width="1366"
     inkscape:window-height="719"
     id="namedview37"
     showgrid="false"
     inkscape:zoom="0.4609375"
     inkscape:cx="-158.37288"
     inkscape:cy="256"
     inkscape:window-x="0"
     inkscape:window-y="26"
     inkscape:window-maximized="1"
     inkscape:current-layer="Capa_1" /><rect
     style="opacity:1;fill:#96281b;fill-opacity:1;stroke:none;stroke-width:3;stroke-miterlimit:4;stroke-dasharray:none;stroke-opacity:1"
     id="rect4169"
     width="115.16949"
     height="89.237289"
     x="0"
     y="-0.20259534" /><g
     id="g7"
     transform="translate(0,-2.1093749)" /><g
     id="g9"
     transform="translate(0,-2.1093749)" /><g
     id="g11"
     transform="translate(0,-2.1093749)" /><g
     id="g13"
     transform="translate(0,-2.1093749)" /><g
     id="g15"
     transform="translate(0,-2.1093749)" /><g
     id="g17"
     transform="translate(0,-2.1093749)" /><g
     id="g19"
     transform="translate(0,-2.1093749)" /><g
     id="g21"
     transform="translate(0,-2.1093749)" /><g
     id="g23"
     transform="translate(0,-2.1093749)" /><g
     id="g25"
     transform="translate(0,-2.1093749)" /><g
     id="g27"
     transform="translate(0,-2.1093749)" /><g
     id="g29"
     transform="translate(0,-2.1093749)" /><g
     id="g31"
     transform="translate(0,-2.1093749)" /><g
     id="g33"
     transform="translate(0,-2.1093749)" /><g
     id="g35"
     transform="translate(0,-2.1093749)" /><g
     id="g3"
     transform="matrix(0.58050848,0,0,0.56144069,31.461862,19.151218)"
     style="fill:#ffffff"><path
       d="m 80,26 -19,0 0,14 15,0 0,21 -62,0 0,-21 21,0 0,11 L 55,33 35,15 35,26 10,26 C 4.477,26 0,30.477 0,36 l 0,29 c 0,5.523 4.477,10 10,10 l 70,0 c 5.523,0 10,-4.477 10,-10 L 90,36 C 90,30.477 85.523,26 80,26 Z"
       id="path5"
       inkscape:connector-curvature="0"
       style="fill:#ffffff" /></g><rect
     y="-0.20259534"
     x="56.440678"
     height="89.237289"
     width="58.728809"
     id="rect4171"
     style="opacity:0.3;fill:#000000;fill-opacity:1;stroke:none;stroke-width:3;stroke-miterlimit:4;stroke-dasharray:none;stroke-opacity:1" /></svg>