<?xml version="1.0" encoding="UTF-8" standalone="no"?>
<!-- Generator: Adobe Illustrator 19.0.0, SVG Export Plug-In . SVG Version: 6.00 Build 0)  -->

<svg
   xmlns:dc="http://purl.org/dc/elements/1.1/"
   xmlns:cc="http://creativecommons.org/ns#"
   xmlns:rdf="http://www.w3.org/1999/02/22-rdf-syntax-ns#"
   xmlns:svg="http://www.w3.org/2000/svg"
   xmlns="http://www.w3.org/2000/svg"
   xmlns:sodipodi="http://sodipodi.sourceforge.net/DTD/sodipodi-0.dtd"
   xmlns:inkscape="http://www.inkscape.org/namespaces/inkscape"
   version="1.1"
   id="Layer_1"
   x="0px"
   y="0px"
   viewBox="0 0 650 500"
   xml:space="preserve"
   inkscape:version="0.91 r"
   sodipodi:docname="operator.svg"
   width="650"
   height="500"><metadata
     id="metadata67"><rdf:RDF><cc:Work
         rdf:about=""><dc:format>image/svg+xml</dc:format><dc:type
           rdf:resource="http://purl.org/dc/dcmitype/StillImage" /><dc:title></dc:title></cc:Work></rdf:RDF></metadata><defs
     id="defs65" /><sodipodi:namedview
     pagecolor="#ffffff"
     bordercolor="#666666"
     borderopacity="1"
     objecttolerance="10"
     gridtolerance="10"
     guidetolerance="10"
     inkscape:pageopacity="0"
     inkscape:pageshadow="2"
     inkscape:window-width="1366"
     inkscape:window-height="719"
     id="namedview63"
     showgrid="false"
     inkscape:zoom="0.51304348"
     inkscape:cx="182.1762"
     inkscape:cy="145.59647"
     inkscape:window-x="0"
     inkscape:window-y="26"
     inkscape:window-maximized="1"
     inkscape:current-layer="Layer_1" /><rect
     style="opacity:1;fill:#93a959;fill-opacity:1;stroke:none;stroke-width:3;stroke-miterlimit:4;stroke-dasharray:none;stroke-opacity:1"
     id="rect4195"
     width="656.86438"
     height="506.77966"
     x="-1.9491526"
     y="-0.93220341"
     ry="0.25003001" /><rect
     ry="0.25003001"
     y="-0.93220341"
     x="-1.9491526"
     height="506.77966"
     width="329.40674"
     id="rect4214"
     style="opacity:1;fill:#abcb57;fill-opacity:1;stroke:none;stroke-width:3;stroke-miterlimit:4;stroke-dasharray:none;stroke-opacity:1" /><rect
     x="166.55011"
     style="fill:#59595a"
     width="319.86584"
     height="116.31034"
     id="rect3"
     y="73.13559" /><rect
     x="195.86055"
     y="102.21317"
     style="fill:#90c5ff"
     width="261.24496"
     height="58.15517"
     id="rect5" /><rect
     x="166.55011"
     y="189.44594"
     style="fill:#d8d9dd"
     width="319.86584"
     height="238.43542"
     id="rect7" /><rect
     x="195.86055"
     y="218.52351"
     style="fill:#59595a;fill-opacity:1"
     width="115.96765"
     height="78.873093"
     id="rect9" /><rect
     x="341.13785"
     y="218.52351"
     style="fill:#59595c;fill-opacity:1"
     width="115.96765"
     height="78.873093"
     id="rect11" /><rect
     x="195.86055"
     y="319.93066"
     style="fill:#59595a;fill-opacity:1"
     width="115.96765"
     height="78.873093"
     id="rect13" /><rect
     x="341.13785"
     y="319.93066"
     style="fill:#59595b;fill-opacity:1"
     width="115.96765"
     height="78.873093"
     id="rect15" /><path
     style="fill:#ffffff"
     d="m 271.46289,252.18657 0,11.54621 -11.09917,0 0,12.08063 -12.93142,0 0,-12.08063 -11.20723,0 0,-11.54621 11.20723,0 0,-12.08063 12.93142,0 0,12.08063 11.09917,0 z"
     id="path17"
     inkscape:connector-curvature="0" /><path
     style="fill:#acacad;fill-opacity:1"
     d="m 382.79591,264.42762 0,-12.93511 32.65232,0 0,12.93511 -32.65232,0 z"
     id="path19"
     inkscape:connector-curvature="0" /><path
     style="fill:#ffffff"
     d="m 273.9419,370.2182 -9.15966,8.87327 -11.09917,-11.011 -11.09918,11.011 -8.83628,-8.98046 10.88386,-10.90458 -10.56125,-10.58376 9.15966,-8.87405 10.56124,10.47734 10.66852,-10.58453 8.83627,8.98124 -10.56046,10.58376 11.20645,11.01177 z"
     id="path21"
     inkscape:connector-curvature="0" /><path
     style="fill:#cececf;fill-opacity:1"
     d="m 377.40802,365.08673 0,-11.43901 43.4281,0 0,11.43901 -43.4281,0 z m 15.62497,-18.70822 0,-13.68393 12.1766,0 0,13.68393 -12.1766,0 z m 0,39.66212 0,-13.79112 12.1766,0 0,13.79112 -12.1766,0 z"
     id="path23"
     inkscape:connector-curvature="0" /><path
     style="fill:#ffffff"
     d="m 360.01143,151.01694 c 0,-10.15113 2.54353,-14.59625 10.12203,-18.27172 4.75668,-2.3043 9.95645,-4.00554 9.95645,-9.16401 0,-3.29219 -2.10198,-5.37748 -5.75247,-5.37748 -4.2032,0 -7.57695,2.57885 -9.51258,4.66413 l -4.64707,-4.82839 c 1.9916,-2.30508 7.30176,-6.47488 15.10025,-6.47488 8.57275,0 13.21905,4.88392 13.21905,11.90711 0,6.6939 -4.47994,9.49254 -9.67894,12.12691 -5.53093,2.74311 -8.35198,4.99343 -8.35198,8.77918 l 18.08689,0 0,6.63915 c 0,0 -28.54163,0 -28.54163,0 z"
     id="path25"
     inkscape:connector-curvature="0" /><path
     style="fill:#ffffff"
     d="m 411.95088,128.57464 0,5.9258 -5.69651,0 0,6.20034 -6.63712,0 0,-6.20034 -5.75248,0 0,-5.9258 5.75248,0 0,-6.20111 6.63712,0 0,6.20111 5.69651,0 z"
     id="path27"
     inkscape:connector-curvature="0" /><path
     style="fill:#ffffff"
     d="m 439.99499,144.37779 0,6.63915 -22.29008,0 0,-6.63915 7.68811,0 0,-25.35043 c -1.21579,1.70123 -5.97325,4.71889 -8.95987,4.71889 l 0,-6.80418 c 3.98242,0 8.85026,-5.04819 8.95987,-5.26721 l 7.57773,0 0,32.70293 7.02424,0 z"
     id="path29"
     inkscape:connector-curvature="0" /><rect
     x="326.48303"
     style="opacity:0.3;fill:#5b5b5f;enable-background:new"
     width="159.93292"
     height="354.74576"
     id="rect31"
     y="73.13559" /><g
     id="g33"
     transform="translate(0,40)" /><g
     id="g35"
     transform="translate(0,40)" /><g
     id="g37"
     transform="translate(0,40)" /><g
     id="g39"
     transform="translate(0,40)" /><g
     id="g41"
     transform="translate(0,40)" /><g
     id="g43"
     transform="translate(0,40)" /><g
     id="g45"
     transform="translate(0,40)" /><g
     id="g47"
     transform="translate(0,40)" /><g
     id="g49"
     transform="translate(0,40)" /><g
     id="g51"
     transform="translate(0,40)" /><g
     id="g53"
     transform="translate(0,40)" /><g
     id="g55"
     transform="translate(0,40)" /><g
     id="g57"
     transform="translate(0,40)" /><g
     id="g59"
     transform="translate(0,40)" /><g
     id="g61"
     transform="translate(0,40)" /></svg>