<?xml version="1.0" encoding="UTF-8" standalone="no"?>
<!-- Generator: Adobe Illustrator 19.0.0, SVG Export Plug-In . SVG Version: 6.00 Build 0)  -->

<svg
   xmlns:dc="http://purl.org/dc/elements/1.1/"
   xmlns:cc="http://creativecommons.org/ns#"
   xmlns:rdf="http://www.w3.org/1999/02/22-rdf-syntax-ns#"
   xmlns:svg="http://www.w3.org/2000/svg"
   xmlns="http://www.w3.org/2000/svg"
   xmlns:sodipodi="http://sodipodi.sourceforge.net/DTD/sodipodi-0.dtd"
   xmlns:inkscape="http://www.inkscape.org/namespaces/inkscape"
   version="1.1"
   id="Capa_1"
   x="0px"
   y="0px"
   viewBox="0 0 596.67969 458.98438"
   xml:space="preserve"
   width="650"
   height="500"
   inkscape:version="0.91 r"
   sodipodi:docname="show.svg"><metadata
     id="metadata27"><rdf:RDF><cc:Work
         rdf:about=""><dc:format>image/svg+xml</dc:format><dc:type
           rdf:resource="http://purl.org/dc/dcmitype/StillImage" /><dc:title></dc:title></cc:Work></rdf:RDF></metadata><defs
     id="defs25" /><sodipodi:namedview
     pagecolor="#ffffff"
     bordercolor="#666666"
     borderopacity="1"
     objecttolerance="10"
     gridtolerance="10"
     guidetolerance="10"
     inkscape:pageopacity="0"
     inkscape:pageshadow="2"
     inkscape:window-width="1366"
     inkscape:window-height="719"
     id="namedview23"
     showgrid="false"
     inkscape:zoom="0.4609375"
     inkscape:cx="-401.35593"
     inkscape:cy="-4.3389831"
     inkscape:window-x="0"
     inkscape:window-y="26"
     inkscape:window-maximized="1"
     inkscape:current-layer="Capa_1" /><rect
     style="opacity:1;fill:#f22613;fill-opacity:1;stroke:none;stroke-width:3;stroke-miterlimit:4;stroke-dasharray:none;stroke-opacity:1"
     id="rect4155"
     width="603.43225"
     height="468.00848"
     x="0"
     y="-1.0579979"
     ry="0.22951974" /><g
     id="g4157"
     transform="matrix(0.74175823,0,0,0.72033897,127.40294,78.571904)"><g
       transform="translate(0,-11.015625)"
       id="g3"><rect
         id="rect5"
         height="53.5"
         width="15"
         style="fill:#6da8d6"
         y="369"
         x="227.5" /><path
         inkscape:connector-curvature="0"
         id="path7"
         d="m 235,470 c -15.163,0 -27.5,-12.336 -27.5,-27.5 0,-15.164 12.337,-27.5 27.5,-27.5 15.163,0 27.5,12.336 27.5,27.5 0,15.164 -12.337,27.5 -27.5,27.5 z m 0,-40 c -6.893,0 -12.5,5.607 -12.5,12.5 0,6.893 5.607,12.5 12.5,12.5 6.893,0 12.5,-5.607 12.5,-12.5 0,-6.893 -5.607,-12.5 -12.5,-12.5 z"
         style="fill:#98d9d5" /><rect
         id="rect9"
         height="281.5"
         width="415"
         style="fill:#f2ebd9"
         y="87.5"
         x="27.5" /><circle
         id="circle11"
         r="7.5"
         cy="286.5"
         cx="386.79999"
         style="fill:#ffcc75" /><circle
         id="circle13"
         r="7.5"
         cy="316.5"
         cx="356.79999"
         style="fill:#ffcc75" /><path
         inkscape:connector-curvature="0"
         id="path15"
         d="m 455,376.5 -440,0 c -4.143,0 -7.5,-3.358 -7.5,-7.5 0,-4.142 3.357,-7.5 7.5,-7.5 l 440,0 c 4.143,0 7.5,3.358 7.5,7.5 0,4.142 -3.357,7.5 -7.5,7.5 z"
         style="fill:#274b6d" /><path
         inkscape:connector-curvature="0"
         id="path17"
         d="m 35,0 c -4.143,0 -7.5,3.358 -7.5,7.5 l 0,40 15,0 0,-40 C 42.5,3.358 39.143,0 35,0 Z"
         style="fill:#274b6d" /><path
         inkscape:connector-curvature="0"
         id="path19"
         d="m 435,0 c -4.143,0 -7.5,3.358 -7.5,7.5 l 0,40 15,0 0,-40 C 442.5,3.358 439.143,0 435,0 Z"
         style="fill:#274b6d" /><rect
         id="rect21"
         height="50"
         width="455"
         style="fill:#98d9d5"
         y="37.5"
         x="7.5" /></g></g><rect
     ry="0.22951974"
     y="-1.0579979"
     x="300.72034"
     height="468.00848"
     width="302.71191"
     id="rect4169"
     style="opacity:0.3;fill:#000000;fill-opacity:1;stroke:none;stroke-width:3;stroke-miterlimit:4;stroke-dasharray:none;stroke-opacity:1" /></svg>