<?xml version="1.0" encoding="UTF-8" standalone="no"?>
<!-- Generator: Adobe Illustrator 16.0.0, SVG Export Plug-In . SVG Version: 6.00 Build 0)  -->

<svg
   xmlns:dc="http://purl.org/dc/elements/1.1/"
   xmlns:cc="http://creativecommons.org/ns#"
   xmlns:rdf="http://www.w3.org/1999/02/22-rdf-syntax-ns#"
   xmlns:svg="http://www.w3.org/2000/svg"
   xmlns="http://www.w3.org/2000/svg"
   xmlns:sodipodi="http://sodipodi.sourceforge.net/DTD/sodipodi-0.dtd"
   xmlns:inkscape="http://www.inkscape.org/namespaces/inkscape"
   version="1.1"
   id="Capa_1"
   x="0px"
   y="0px"
   width="650"
   height="500"
   viewBox="0 0 649.53027 499.63867"
   xml:space="preserve"
   inkscape:version="0.91 r"
   sodipodi:docname="sort-by-order.svg"><metadata
     id="metadata47"><rdf:RDF><cc:Work
         rdf:about=""><dc:format>image/svg+xml</dc:format><dc:type
           rdf:resource="http://purl.org/dc/dcmitype/StillImage" /><dc:title></dc:title></cc:Work></rdf:RDF></metadata><defs
     id="defs45" /><sodipodi:namedview
     pagecolor="#ffffff"
     bordercolor="#666666"
     borderopacity="1"
     objecttolerance="10"
     gridtolerance="10"
     guidetolerance="10"
     inkscape:pageopacity="0"
     inkscape:pageshadow="2"
     inkscape:window-width="1366"
     inkscape:window-height="719"
     id="namedview43"
     showgrid="false"
     inkscape:zoom="0.4609375"
     inkscape:cx="-90.033898"
     inkscape:cy="215.20062"
     inkscape:window-x="0"
     inkscape:window-y="26"
     inkscape:window-maximized="1"
     inkscape:current-layer="Capa_1" /><g
     id="g13"
     transform="translate(0,-11.991329)" /><g
     id="g15"
     transform="translate(0,-11.991329)" /><g
     id="g17"
     transform="translate(0,-11.991329)" /><g
     id="g19"
     transform="translate(0,-11.991329)" /><g
     id="g21"
     transform="translate(0,-11.991329)" /><g
     id="g23"
     transform="translate(0,-11.991329)" /><g
     id="g25"
     transform="translate(0,-11.991329)" /><g
     id="g27"
     transform="translate(0,-11.991329)" /><g
     id="g29"
     transform="translate(0,-11.991329)" /><g
     id="g31"
     transform="translate(0,-11.991329)" /><g
     id="g33"
     transform="translate(0,-11.991329)" /><g
     id="g35"
     transform="translate(0,-11.991329)" /><g
     id="g37"
     transform="translate(0,-11.991329)" /><g
     id="g39"
     transform="translate(0,-11.991329)" /><g
     id="g41"
     transform="translate(0,-11.991329)" /><g
     id="g4215"><rect
       y="-1.1517096"
       x="0"
       height="502.95831"
       width="654.71301"
       id="rect4197"
       style="opacity:1;fill:#59abe3;fill-opacity:1;stroke:none;stroke-width:3;stroke-miterlimit:4;stroke-dasharray:none;stroke-opacity:1" /><g
       style="fill:#000000"
       transform="matrix(0.38502865,0,0,0.37288134,386.60896,184.63925)"
       id="g4208"><path
         style="fill:#000000"
         inkscape:connector-curvature="0"
         d="m -196.67205,30.433681 -54.81832,0 0,392.857319 c 0,2.66301 -0.85401,4.85602 -2.56802,6.56703 -1.71301,1.71001 -3.90002,2.56902 -6.56704,2.56902 l -54.81832,0 c -2.66302,0 -4.85603,-0.85501 -6.56704,-2.56802 -1.70901,-1.71501 -2.56801,-3.90502 -2.56801,-6.56703 l 0,-392.857319 -54.81933,0 c -4.18402,0 -7.03904,-1.90201 -8.56305,-5.70804 -1.52501,-3.62102 -0.856,-6.95004 1.99701,-9.99606 l 91.36154,-91.36553 c 2.09601,-1.70701 4.28103,-2.56202 6.56704,-2.56202 2.47402,0 4.66403,0.85501 6.56704,2.56202 l 91.07654,91.07853 c 1.90601,2.27902 2.85601,4.57103 2.85601,6.84404 0,2.67602 -0.854,4.85903 -2.56801,6.58404 -1.71401,1.70601 -3.90002,2.56202 -6.56804,2.56202 z"
         id="path7-7" /><path
         style="fill:#000000"
         inkscape:connector-curvature="0"
         d="m 56.572444,402.16687 -65.6643874,-189.01111 -46.2502726,0 -65.661384,189.01411 -19.98012,0 0,30.26318 81.934482,0 0,-30.26618 -21.412126,0 13.418079,-41.11024 69.381409,0 13.415079,41.11024 -21.4061261,0 0,30.26618 82.2284851,0 0,-30.26618 -20.003118,0 z M -57.62523,329.65144 -36.784107,267.40908 c 0.760005,-2.28302 1.479009,-5.04503 2.143013,-8.27805 0.660004,-3.23402 0.996006,-4.94803 0.996006,-5.13703 l 0.855005,-5.71504 1.143007,0 c 0,0.76701 0.191001,2.66902 0.562003,5.71504 l 3.43302,13.41508 20.5541213,62.24236 -50.5272983,0 z"
         id="path9-5" /><path
         style="fill:#000000"
         inkscape:connector-curvature="0"
         d="m 51.152412,73.548932 -34.537204,0 0,33.975198 -70.808418,0 c -4.001023,0 -6.85204,0.097 -8.55605,0.288 l -4.004024,0.85401 0,-0.85401 3.142019,-2.85801 c 2.851017,-3.42202 4.853029,-5.896037 5.996035,-7.421046 l 105.344622,-151.319893 0,-25.41015 -161.878952,0 0,65.387386 34.259199,0 0,-32.835194 66.232391,0 c 3.42602,0 6.2830367,-0.288002 8.5600501,-0.859005 0.5710034,0 1.2860076,-0.048 2.1420127,-0.144001 0.855005,-0.094 1.4760087,-0.144001 1.8540109,-0.144001 l 0,0.855005 -3.1410185,2.568015 c -1.7080101,1.713011 -3.7100219,4.283026 -5.9960352,7.710046 l -105.34462,151.031888 0,25.69715 166.735982,0 0,-66.521388 z"
         id="path11-3" /></g><path
       inkscape:connector-curvature="0"
       id="path7-5"
       d="m 252.61511,380.40298 -50.37347,0 c -6.95235,0 -12.59373,-5.13724 -12.59373,-11.47748 l 0,-237.1961 c 0,-6.34026 5.64138,-11.47749 12.59373,-11.47749 l 50.37422,0 c 6.95235,0 12.59374,5.13723 12.59374,11.47749 0,6.34025 -5.64139,11.47749 -12.59374,11.47749 l -37.78047,0 0,214.24182 37.78047,0 c 6.95235,0 12.59374,5.13722 12.59374,11.47748 0,6.34025 -5.64214,11.47679 -12.59449,11.47679 z"
       style="fill:#000000" /><path
       style="fill:#000000"
       d="m 402.0979,380.40298 50.37346,0 c 6.95236,0 12.59374,-5.13724 12.59374,-11.47748 l 0,-237.1961 c 0,-6.34026 -5.64138,-11.47749 -12.59374,-11.47749 l -50.37421,0 c -6.95235,0 -12.59374,5.13723 -12.59374,11.47749 0,6.34025 5.64139,11.47749 12.59374,11.47749 l 37.78047,0 0,214.24182 -37.78047,0 c -6.95235,0 -12.59374,5.13722 -12.59374,11.47748 0,6.34025 5.64214,11.47679 12.59449,11.47679 z"
       id="path4193"
       inkscape:connector-curvature="0" /><rect
       style="opacity:0.3;fill:#000000;fill-opacity:1;stroke:none;stroke-width:3;stroke-miterlimit:4;stroke-dasharray:none;stroke-opacity:1"
       id="rect4213"
       width="331.69235"
       height="502.95831"
       x="323.02066"
       y="-1.1517096" /></g></svg>