<?xml version="1.0" encoding="UTF-8" standalone="no"?>
<!-- Generator: Adobe Illustrator 18.1.1, SVG Export Plug-In . SVG Version: 6.00 Build 0)  -->

<svg
   xmlns:dc="http://purl.org/dc/elements/1.1/"
   xmlns:cc="http://creativecommons.org/ns#"
   xmlns:rdf="http://www.w3.org/1999/02/22-rdf-syntax-ns#"
   xmlns:svg="http://www.w3.org/2000/svg"
   xmlns="http://www.w3.org/2000/svg"
   xmlns:sodipodi="http://sodipodi.sourceforge.net/DTD/sodipodi-0.dtd"
   xmlns:inkscape="http://www.inkscape.org/namespaces/inkscape"
   version="1.1"
   id="Capa_1"
   x="0px"
   y="0px"
   viewBox="0 0 40.099414 30.845703"
   xml:space="preserve"
   width="650"
   height="500"
   inkscape:version="0.91 r"
   sodipodi:docname="string.svg"><metadata
     id="metadata75"><rdf:RDF><cc:Work
         rdf:about=""><dc:format>image/svg+xml</dc:format><dc:type
           rdf:resource="http://purl.org/dc/dcmitype/StillImage" /><dc:title></dc:title></cc:Work></rdf:RDF></metadata><defs
     id="defs73" /><sodipodi:namedview
     pagecolor="#ffffff"
     bordercolor="#666666"
     borderopacity="1"
     objecttolerance="10"
     gridtolerance="10"
     guidetolerance="10"
     inkscape:pageopacity="0"
     inkscape:pageshadow="2"
     inkscape:window-width="1366"
     inkscape:window-height="719"
     id="namedview71"
     showgrid="false"
     inkscape:zoom="0.4609375"
     inkscape:cx="180.0678"
     inkscape:cy="256"
     inkscape:window-x="0"
     inkscape:window-y="26"
     inkscape:window-maximized="1"
     inkscape:current-layer="Capa_1" /><rect
     style="opacity:1;fill:#913d88;fill-opacity:1;stroke:none;stroke-width:3;stroke-miterlimit:4;stroke-dasharray:none;stroke-opacity:1"
     id="rect4225"
     width="40.553215"
     height="31.318323"
     x="0"
     y="-0.071101964" /><rect
     style="opacity:1;fill:#ffffff;fill-opacity:1;stroke:none;stroke-width:3;stroke-miterlimit:4;stroke-dasharray:none;stroke-opacity:1"
     id="rect4231"
     width="22.083433"
     height="13.25006"
     x="9.3687258"
     y="10.10066" /><rect
     y="-0.071101964"
     x="19.540491"
     height="31.318323"
     width="21.012724"
     id="rect4227"
     style="opacity:0.3;fill:#000000;fill-opacity:1;stroke:none;stroke-width:3;stroke-miterlimit:4;stroke-dasharray:none;stroke-opacity:1" /><path
     style="fill:#26a65b;fill-opacity:1"
     inkscape:connector-curvature="0"
     id="path5"
     d="m 31.374186,6.4667455 -21.7952537,0 c -1.0031356,0 -1.8162712,0.679808 -1.8162712,1.5192934 l 0,15.2023661 c 0,0.838811 0.8131356,1.519967 1.8162712,1.519967 l 21.7952537,0 c 1.001525,0 1.817881,-0.681829 1.817881,-1.519967 l 0,-15.2023661 c 0,-0.8394854 -0.816356,-1.5192934 -1.817881,-1.5192934 z M 13.666348,7.6080683 c 0.500762,0 0.908135,0.3382197 0.908135,0.7599836 0,0.4197427 -0.407373,0.7579624 -0.908135,0.7579624 -0.503983,0 -0.910551,-0.3382197 -0.910551,-0.7579624 0,-0.4217639 0.406568,-0.7599836 0.910551,-0.7599836 z m -2.726017,0 c 0.501567,0 0.90733,0.3382197 0.90733,0.7599836 0,0.4197427 -0.405763,0.7579624 -0.90733,0.7579624 -0.502373,0 -0.908941,-0.3382197 -0.908941,-0.7579624 0,-0.4217639 0.406568,-0.7599836 0.908941,-0.7599836 z m 20.433855,15.5810107 -21.7952537,0 0,-12.905572 21.7952537,0 c 0,0 0,12.905572 0,12.905572 z" /><polygon
     style="fill:#a9a9a9"
     id="polygon7"
     points="11.003,13.266 5.4,15.66 5.4,17.256 12.645,13.943 12.645,12.556 5.4,9.243 5.4,10.84 11.003,13.235 "
     transform="matrix(0.29801499,0,0,0.28178257,9.2781174,12.857814)" /><g
     id="g41"
     transform="translate(0,-0.74029688)" /><g
     id="g43"
     transform="translate(0,-0.74029688)" /><g
     id="g45"
     transform="translate(0,-0.74029688)" /><g
     id="g47"
     transform="translate(0,-0.74029688)" /><g
     id="g49"
     transform="translate(0,-0.74029688)" /><g
     id="g51"
     transform="translate(0,-0.74029688)" /><g
     id="g53"
     transform="translate(0,-0.74029688)" /><g
     id="g55"
     transform="translate(0,-0.74029688)" /><g
     id="g57"
     transform="translate(0,-0.74029688)" /><g
     id="g59"
     transform="translate(0,-0.74029688)" /><g
     id="g61"
     transform="translate(0,-0.74029688)" /><g
     id="g63"
     transform="translate(0,-0.74029688)" /><g
     id="g65"
     transform="translate(0,-0.74029688)" /><g
     id="g67"
     transform="translate(0,-0.74029688)" /><g
     id="g69"
     transform="translate(0,-0.74029688)" /><text
     xml:space="preserve"
     style="font-style:normal;font-weight:normal;font-size:2.53319025px;line-height:125%;font-family:Sans;letter-spacing:0px;word-spacing:0px;fill:#808080;fill-opacity:1;stroke:none;stroke-width:1px;stroke-linecap:butt;stroke-linejoin:miter;stroke-opacity:1;"
     x="15.843842"
     y="15.745466"
     id="text4203"
     sodipodi:linespacing="125%"
     transform="scale(0.8939786,1.118595)"><tspan
       sodipodi:role="line"
       id="tspan4205"
       x="15.843842"
       y="15.745466"
       style="font-style:normal;font-variant:normal;font-weight:normal;font-stretch:normal;font-family:rOBOTO;-inkscape-font-specification:rOBOTO;fill:#808080;">&quot;I LOVE PHP&quot;</tspan></text>
<ellipse
     style="opacity:1;fill:#d91e18;fill-opacity:1;stroke:none;stroke-width:3;stroke-miterlimit:4;stroke-dasharray:none;stroke-opacity:1"
     id="path4240"
     cx="10.91833"
     cy="8.2833776"
     rx="1.0037924"
     ry="0.86995351" /><ellipse
     ry="0.86995351"
     rx="1.0037924"
     cy="8.2833776"
     cx="13.632747"
     id="ellipse4242"
     style="opacity:1;fill:#f7ca18;fill-opacity:1;stroke:none;stroke-width:3;stroke-miterlimit:4;stroke-dasharray:none;stroke-opacity:1" /></svg>