<?xml version="1.0" encoding="UTF-8" standalone="no"?>
<!-- Generator: Adobe Illustrator 19.0.0, SVG Export Plug-In . SVG Version: 6.00 Build 0)  -->

<svg
   xmlns:dc="http://purl.org/dc/elements/1.1/"
   xmlns:cc="http://creativecommons.org/ns#"
   xmlns:rdf="http://www.w3.org/1999/02/22-rdf-syntax-ns#"
   xmlns:svg="http://www.w3.org/2000/svg"
   xmlns="http://www.w3.org/2000/svg"
   xmlns:sodipodi="http://sodipodi.sourceforge.net/DTD/sodipodi-0.dtd"
   xmlns:inkscape="http://www.inkscape.org/namespaces/inkscape"
   version="1.1"
   id="Layer_1"
   x="0px"
   y="0px"
   viewBox="0 0 650 500"
   xml:space="preserve"
   inkscape:version="0.91 r"
   sodipodi:docname="internet.svg"
   width="650"
   height="500"><metadata
     id="metadata51"><rdf:RDF><cc:Work
         rdf:about=""><dc:format>image/svg+xml</dc:format><dc:type
           rdf:resource="http://purl.org/dc/dcmitype/StillImage" /><dc:title></dc:title></cc:Work></rdf:RDF></metadata><defs
     id="defs49" /><sodipodi:namedview
     pagecolor="#ffffff"
     bordercolor="#666666"
     borderopacity="1"
     objecttolerance="10"
     gridtolerance="10"
     guidetolerance="10"
     inkscape:pageopacity="0"
     inkscape:pageshadow="2"
     inkscape:window-width="1366"
     inkscape:window-height="719"
     id="namedview47"
     showgrid="false"
     inkscape:zoom="0.4609375"
     inkscape:cx="-17.355932"
     inkscape:cy="256"
     inkscape:window-x="0"
     inkscape:window-y="26"
     inkscape:window-maximized="1"
     inkscape:current-layer="Layer_1" /><g
     id="g17"
     transform="translate(0,-12)" /><g
     id="g19"
     transform="translate(0,-12)" /><g
     id="g21"
     transform="translate(0,-12)" /><g
     id="g23"
     transform="translate(0,-12)" /><g
     id="g25"
     transform="translate(0,-12)" /><g
     id="g27"
     transform="translate(0,-12)" /><g
     id="g29"
     transform="translate(0,-12)" /><g
     id="g31"
     transform="translate(0,-12)" /><g
     id="g33"
     transform="translate(0,-12)" /><g
     id="g35"
     transform="translate(0,-12)" /><g
     id="g37"
     transform="translate(0,-12)" /><g
     id="g39"
     transform="translate(0,-12)" /><g
     id="g41"
     transform="translate(0,-12)" /><g
     id="g43"
     transform="translate(0,-12)" /><g
     id="g45"
     transform="translate(0,-12)" /><rect
     style="opacity:1;fill:#19b5fe;fill-opacity:1;stroke:none;stroke-width:3;stroke-miterlimit:4;stroke-dasharray:none;stroke-opacity:1"
     id="rect4179"
     width="657.35596"
     height="507.66101"
     x="0"
     y="-1.1525424" /><g
     id="g3"
     transform="matrix(0.68644075,0,0,0.66949153,152.9491,81.288131)"><circle
       style="fill:#2d404e"
       cx="256"
       cy="256"
       r="256"
       id="circle5" /><path
       style="fill:#48b19b"
       d="m 512,256 c 0,-51.363 -15.124,-99.191 -41.165,-139.275 0,0 -14.604,21.334 -11.86,35.047 2.742,13.715 18.855,14.762 17.2,24.822 -1.655,10.06 -13.541,-2.879 -28.172,23.633 -14.63,26.514 -7.312,63.096 13.714,65.834 C 482.744,268.797 512,256 512,256 Z"
       id="path7"
       inkscape:connector-curvature="0" /><path
       style="fill:#48b19b"
       d="m 323.23,8.92 c 29.797,8.088 57.434,21.424 81.857,38.951 0,0 -29.684,-4.896 -40.929,5.158 -11.244,10.057 -27.643,33.832 -40.929,0 C 309.945,19.199 323.23,8.92 323.23,8.92 Z"
       id="path9"
       inkscape:connector-curvature="0" /><path
       style="fill:#48b19b"
       d="M 63.519,87.219 C 110.437,33.754 179.275,0 256,0 c 0,0 -17.368,10.516 15.546,28.344 32.915,17.83 17.828,26.057 10.971,31.543 C 275.661,65.373 263.768,48.916 256,37.946 248.231,26.973 214.868,10.061 189.266,19.206 c -25.601,9.145 -47.539,15.9 -43.885,24.408 3.653,8.506 47.539,-7.945 63.996,-7.035 16.457,0.912 10.971,10.967 -4.569,22.854 -15.542,11.887 -17.374,26.514 -0.916,35.656 16.456,9.146 36.566,10.061 41.143,4.576 4.574,-5.486 -8.229,-41.143 22.858,-25.602 31.087,15.541 56.688,24.691 31.087,47.545 -25.602,22.852 -54.857,48.461 -55.773,63.084 -0.916,14.625 9.146,26.52 3.66,27.43 -5.486,0.91 -10.521,-5.941 -14.176,-10.973 -3.653,-5.029 -20.571,-6.855 -28.799,-3.658 -8.229,3.197 -23.774,15.541 -15.086,27.428 8.689,11.889 20.565,6.396 32.454,11.883 11.887,5.486 22.972,26.365 20.696,31.084 -2.276,4.717 -12.409,-1.256 -20.696,-17.369 -8.289,-16.115 -23.835,-5.486 -34.773,-8.229 -10.939,-2.742 -19.168,-4.57 -30.14,-23.771 C 145.375,199.318 122.66,193.945 113.378,182.861 86.789,151.111 88.691,127.09 83.206,116.119 77.72,105.145 63.519,87.219 63.519,87.219 Z"
       id="path11"
       inkscape:connector-curvature="0" /><path
       style="fill:#48b19b"
       d="m 280.685,259.658 c 0,0 27.429,2.738 41.143,14.627 13.714,11.887 15.546,16.461 36.573,21.031 21.027,4.568 30.172,16.451 16.457,39.311 -13.714,22.857 -38.404,59.43 -50.287,70.402 -11.882,10.973 -26.512,20.115 -31.998,38.4 -5.485,18.283 -7.317,29.248 4.57,36.568 0,0 -6.396,15.545 -21.026,-4.57 -14.631,-20.117 -2.744,-43.885 0,-57.6 2.742,-13.713 10.055,-54.852 5.484,-64.914 -4.568,-10.059 -25.601,-16.461 -31.087,-37.486 -5.486,-21.026 4.115,-61.944 30.171,-55.769 z"
       id="path13"
       inkscape:connector-curvature="0" /><path
       style="opacity:0.6;fill:#253744;enable-background:new"
       d="m 74.98,74.983 c 99.975,-99.977 262.062,-99.975 362.038,0 99.976,99.973 99.976,262.062 0.001,362.037 0,0 116.148,-153.59 -48.293,-318.031 C 224.284,-45.453 74.98,74.983 74.98,74.983 Z"
       id="path15"
       inkscape:connector-curvature="0" /></g><rect
     y="-1.1525424"
     x="321.08475"
     height="507.66101"
     width="336.27121"
     id="rect4181"
     style="opacity:0.31700003;fill:#000000;fill-opacity:1;stroke:none;stroke-width:3;stroke-miterlimit:4;stroke-dasharray:none;stroke-opacity:1" /></svg>