<?xml version="1.0" encoding="UTF-8" standalone="no"?>
<!-- Generator: Adobe Illustrator 19.0.0, SVG Export Plug-In . SVG Version: 6.00 Build 0)  -->

<svg
   xmlns:dc="http://purl.org/dc/elements/1.1/"
   xmlns:cc="http://creativecommons.org/ns#"
   xmlns:rdf="http://www.w3.org/1999/02/22-rdf-syntax-ns#"
   xmlns:svg="http://www.w3.org/2000/svg"
   xmlns="http://www.w3.org/2000/svg"
   xmlns:sodipodi="http://sodipodi.sourceforge.net/DTD/sodipodi-0.dtd"
   xmlns:inkscape="http://www.inkscape.org/namespaces/inkscape"
   version="1.1"
   id="Layer_1"
   x="0px"
   y="0px"
   viewBox="0 0 650 500"
   xml:space="preserve"
   inkscape:version="0.91 r"
   sodipodi:docname="syntax.svg"
   width="650"
   height="500"><metadata
     id="metadata59"><rdf:RDF><cc:Work
         rdf:about=""><dc:format>image/svg+xml</dc:format><dc:type
           rdf:resource="http://purl.org/dc/dcmitype/StillImage" /><dc:title></dc:title></cc:Work></rdf:RDF></metadata><defs
     id="defs57" /><sodipodi:namedview
     pagecolor="#ffffff"
     bordercolor="#666666"
     borderopacity="1"
     objecttolerance="10"
     gridtolerance="10"
     guidetolerance="10"
     inkscape:pageopacity="0"
     inkscape:pageshadow="2"
     inkscape:window-width="1366"
     inkscape:window-height="719"
     id="namedview55"
     showgrid="false"
     inkscape:zoom="0.73352616"
     inkscape:cx="7.9023052"
     inkscape:cy="227.5"
     inkscape:window-x="0"
     inkscape:window-y="26"
     inkscape:window-maximized="1"
     inkscape:current-layer="Layer_1" /><rect
     style="opacity:1;fill:#2c3e50;fill-opacity:1;stroke:none;stroke-width:3;stroke-miterlimit:4;stroke-dasharray:none;stroke-opacity:1"
     id="rect4222"
     width="654.47314"
     height="503.19916"
     x="0"
     y="-1.2711865" /><g
     id="g25"
     transform="translate(0,45)" /><g
     id="g27"
     transform="translate(0,45)" /><g
     id="g29"
     transform="translate(0,45)" /><g
     id="g31"
     transform="translate(0,45)" /><g
     id="g33"
     transform="translate(0,45)" /><g
     id="g35"
     transform="translate(0,45)" /><g
     id="g37"
     transform="translate(0,45)" /><g
     id="g39"
     transform="translate(0,45)" /><g
     id="g41"
     transform="translate(0,45)" /><g
     id="g43"
     transform="translate(0,45)" /><g
     id="g45"
     transform="translate(0,45)" /><g
     id="g47"
     transform="translate(0,45)" /><g
     id="g49"
     transform="translate(0,45)" /><g
     id="g51"
     transform="translate(0,45)" /><g
     id="g53"
     transform="translate(0,45)" /><path
     inkscape:connector-curvature="0"
     style="fill:#9bfbff"
     d="m 207.88086,79.703125 0,204.597655 127.58594,0 0,-204.597655 -127.58594,0 z M 289.20117,183.8418 c 6.19574,0 11.0631,1.6149 14.60352,4.8457 3.56645,3.2308 5.34961,7.59358 5.34961,13.08594 0,3.36541 -0.9753,6.46211 -2.92774,9.28906 -1.9264,2.82695 -4.38712,5.04671 -7.38086,6.66211 -1.66608,1.13078 -2.79773,2.35654 -3.39648,3.67578 -0.57272,1.29232 -0.85938,3.05638 -0.85938,5.29102 l -13.19922,0 c 0.026,-3.74235 0.67754,-6.55678 1.95313,-8.44141 1.27559,-1.88463 3.60601,-4.05193 6.99023,-6.50195 1.74418,-1.13078 3.11038,-2.52998 4.09961,-4.19922 1.01527,-1.66925 1.52344,-3.5946 1.52344,-5.77539 0,-2.26156 -0.58635,-4.06595 -1.75781,-5.41211 -1.17146,-1.34617 -2.83735,-2.01953 -4.99805,-2.01953 -1.74418,0 -3.20158,0.55239 -4.37305,1.65625 -1.17146,1.10385 -1.78387,2.74694 -1.83593,4.92773 l -12.84766,0 -0.0781,-0.24219 c -0.0781,-5.60005 1.6399,-9.80153 5.15429,-12.60156 3.54042,-2.82695 8.20126,-4.24023 13.98047,-4.24023 z m -24.28906,17.81054 0,12.35743 -21.55469,7.51171 0,0.24219 21.55469,7.31055 0,12.39648 -34.51953,-14.53711 0,-10.74218 34.51953,-14.53907 z m 16.51758,30.9336 13.12109,0 0,10.90429 -13.12109,0 0,-10.90429 z"
     id="rect7" /><path
     inkscape:connector-curvature="0"
     id="path9"
     d="m 326.81961,353.98194 0,19.30958 -11.07736,0 0,-47.11271 11.07736,0 0,18.24788 8.64649,0 0,-60.12585 -127.58474,0 0,130.86865 127.58474,0 0,-61.18755 -8.64649,0 z m -21.51154,-5.90567 c -0.74299,1.9022 -1.77943,3.60607 -3.10781,5.1094 -1.32914,1.50481 -2.9382,2.69921 -4.82946,3.58322 -1.89201,0.88549 -3.9859,1.32712 -6.28167,1.32712 l -9.72646,0 0,15.19552 -11.07736,0 0,-47.11271 20.46609,0 c 2.29728,0 4.40093,0.46449 6.31545,1.39421 1.91377,0.92898 3.55661,2.14551 4.93077,3.64884 1.37266,1.5048 2.45413,3.20867 3.24141,5.11014 0.78802,1.9022 1.18203,3.82653 1.18203,5.77297 10e-4,2.07915 -0.37,4.06983 -1.11299,5.97129 z"
     style="fill:#ffda44" /><path
     inkscape:connector-curvature="0"
     id="path11"
     d="m 293.58904,337.26025 c -0.49608,-0.53085 -1.05821,-0.91793 -1.68862,-1.16123 -0.63117,-0.24257 -1.26159,-0.36496 -1.89201,-0.36496 l -8.64574,0 0,12.87305 9.05101,0 c 1.30587,0 2.43161,-0.55223 3.37724,-1.6589 0.94638,-1.10519 1.41919,-2.71985 1.41919,-4.84324 0,-1.1052 -0.14634,-2.05703 -0.43904,-2.85331 -0.29344,-0.797 -0.68745,-1.46056 -1.18203,-1.99141 z"
     style="fill:#ffda44" /><path
     inkscape:connector-curvature="0"
     id="path13"
     d="m 393.08262,346.94821 c 0.94563,-1.10519 1.41845,-2.71985 1.41845,-4.84324 0,-1.1052 -0.14635,-2.05703 -0.43904,-2.85331 -0.29345,-0.79627 -0.68746,-1.45983 -1.18204,-1.99067 -0.49608,-0.53085 -1.0582,-0.91793 -1.68862,-1.16123 -0.63117,-0.24257 -1.26159,-0.36496 -1.89126,-0.36496 l -8.64649,0 0,12.87305 9.05176,0 c 1.30512,-7.4e-4 2.43087,-0.55297 3.37724,-1.65964 z"
     style="fill:#ffcd00" /><path
     inkscape:connector-curvature="0"
     id="path15"
     d="m 335.4661,344.42669 10.46946,0 0,-18.24788 11.07736,0 0,47.11271 -11.07736,0 0,-19.30958 -10.46946,0 0,61.18755 127.58475,0 0,-130.86865 -127.58475,0 0,60.12585 z m 34.11016,-18.24788 20.4661,0 c 2.29727,0 4.40092,0.46449 6.31544,1.39421 1.91377,0.92898 3.55661,2.14552 4.93078,3.64885 1.37266,1.5048 2.45413,3.20867 3.24215,5.11013 0.78727,1.90221 1.18128,3.82653 1.18128,5.77297 0,2.07915 -0.37074,4.07057 -1.11374,5.97203 -0.74299,1.90221 -1.77943,3.60609 -3.10781,5.10942 -1.32838,1.5048 -2.93745,2.69921 -4.82946,3.58322 -1.89125,0.88548 -3.98515,1.32712 -6.28167,1.32712 l -9.72646,0 0,15.1955 -11.07736,0 0,-47.11344 z"
     style="fill:#ffcd00" /><g
     id="g4251"><g
       id="g4238"><g
         id="g4241"><g
           id="g4247"><g
             id="g4244"><polygon
               transform="matrix(0.75049851,0,0,0.73728813,164.72769,79.70339)"
               style="fill:#46f8ff"
               points="285.784,0 227.5,0 227.5,277.5 397.5,277.5 397.5,111.716 285.784,111.716 "
               id="polygon5" /></g></g></g></g><polygon
       transform="matrix(0.75049851,0,0,0.73728813,164.72769,79.70339)"
       style="fill:#00d7df"
       points="285.784,0 285.784,111.716 397.5,111.716 "
       id="polygon17" /></g><text
     transform="scale(-0.98331724,1.0169658)"
     sodipodi:linespacing="125%"
     id="text4205"
     y="239.42862"
     x="-453.60751"
     style="font-style:normal;font-weight:normal;font-size:81.32865143px;line-height:125%;font-family:Sans;letter-spacing:0px;word-spacing:0px;fill:#22313f;fill-opacity:1;stroke:none;stroke-width:1px;stroke-linecap:butt;stroke-linejoin:miter;stroke-opacity:1"
     xml:space="preserve"><tspan
       style="font-style:normal;font-variant:normal;font-weight:normal;font-stretch:normal;font-family:Roboto;-inkscape-font-specification:Roboto;fill:#22313f;fill-opacity:1"
       y="239.42862"
       x="-453.60751"
       id="tspan4207"
       sodipodi:role="line">&lt;?</tspan></text>
<rect
     y="-1.2711865"
     x="331.56778"
     height="503.19916"
     width="323.89832"
     id="rect4224"
     style="opacity:0.3;fill:#000000;fill-opacity:1;stroke:none;stroke-width:3;stroke-miterlimit:4;stroke-dasharray:none;stroke-opacity:1" /></svg>