<?xml version="1.0" encoding="UTF-8" standalone="no"?>
<svg
   xmlns:dc="http://purl.org/dc/elements/1.1/"
   xmlns:cc="http://creativecommons.org/ns#"
   xmlns:rdf="http://www.w3.org/1999/02/22-rdf-syntax-ns#"
   xmlns:svg="http://www.w3.org/2000/svg"
   xmlns="http://www.w3.org/2000/svg"
   xmlns:sodipodi="http://sodipodi.sourceforge.net/DTD/sodipodi-0.dtd"
   xmlns:inkscape="http://www.inkscape.org/namespaces/inkscape"
   version="1.1"
   id="Layer_1"
   x="0px"
   y="0px"
   width="512px"
   height="512px"
   viewBox="0 0 512 512"
   enable-background="new 0 0 512 512"
   xml:space="preserve"
   inkscape:version="0.91 r"
   sodipodi:docname="HTML5.svg"><metadata
     id="metadata29"><rdf:RDF><cc:Work
         rdf:about=""><dc:format>image/svg+xml</dc:format><dc:type
           rdf:resource="http://purl.org/dc/dcmitype/StillImage" /><dc:title></dc:title></cc:Work></rdf:RDF></metadata><defs
     id="defs27" /><sodipodi:namedview
     pagecolor="#ffffff"
     bordercolor="#666666"
     borderopacity="1"
     objecttolerance="10"
     gridtolerance="10"
     guidetolerance="10"
     inkscape:pageopacity="0"
     inkscape:pageshadow="2"
     inkscape:window-width="1366"
     inkscape:window-height="719"
     id="namedview25"
     showgrid="false"
     inkscape:zoom="0.65186406"
     inkscape:cx="191.18781"
     inkscape:cy="256"
     inkscape:window-x="0"
     inkscape:window-y="26"
     inkscape:window-maximized="1"
     inkscape:current-layer="Layer_1" /><path
     style="fill:#e44d26;fill-opacity:1"
     inkscape:connector-curvature="0"
     id="path15"
     d="m 185.97559,216.49486 70.81303,0 0,-52.11033 -75.71535,0 4.90232,52.11033 z M 42.686,28.676705 81.6768,443.59246 256.68369,489.688 431.85565,443.61431 470.89379,28.676705 l -428.20779,0 z m 355.7517,388.519415 -141.64908,37.25792 0,-52.80724 -0.0857,0.0243 -109.86781,-28.93872 -7.68299,-81.70831 53.84109,0 3.98737,42.39003 59.73386,15.30649 0.0755,-0.0231 0,-81.31373 -119.86312,0 -14.46768,-153.88938 134.32952,0 0,-50.888917 175.012,0 -33.36292,354.590637 z" /><path
     style="opacity:1;fill:#f16529;fill-opacity:1;stroke:#e44d26;stroke-width:1.24645591;stroke-opacity:1"
     inkscape:connector-curvature="0"
     id="path17"
     d="m 322.80809,267.38378 -66.01947,0 0,81.31494 59.79527,-15.31378 6.2242,-66.00116 z m -66.01947,-204.778297 0,50.888917 134.33079,0 -4.80379,50.89013 -129.527,0 0,52.11033 124.64515,0 -14.71464,156.2375 -109.93051,28.91444 0,52.80724 141.64908,-37.25792 33.36164,-354.591851 -175.01072,0 z" /><g
     style="opacity:0.2"
     id="g19"
     transform="matrix(1.2796456,0,0,1.214127,-70.800646,-107.28366)"><polygon
       style="fill:#231f20"
       id="polygon21"
       points="151.025,181.841 162.331,308.59 256,308.59 256,266.676 200.662,266.676 196.831,223.756 256,223.756 256,181.841 " /><polygon
       style="fill:#231f20"
       id="polygon23"
       points="255.941,375.582 209.262,362.975 206.146,328.061 164.07,328.061 170.074,395.358 255.933,419.193 256,419.174 256,375.563 " /></g></svg>