<?xml version="1.0" encoding="UTF-8" standalone="no"?>
<!-- Created with Inkscape (http://www.inkscape.org/) -->

<svg
   xmlns:dc="http://purl.org/dc/elements/1.1/"
   xmlns:cc="http://creativecommons.org/ns#"
   xmlns:rdf="http://www.w3.org/1999/02/22-rdf-syntax-ns#"
   xmlns:svg="http://www.w3.org/2000/svg"
   xmlns="http://www.w3.org/2000/svg"
   xmlns:sodipodi="http://sodipodi.sourceforge.net/DTD/sodipodi-0.dtd"
   xmlns:inkscape="http://www.inkscape.org/namespaces/inkscape"
   id="svg2"
   version="1.1"
   inkscape:version="0.91 r"
   width="320"
   height="320"
   viewBox="0 0 320 320"
   sodipodi:docname="JS.svg">
  <metadata
     id="metadata8">
    <rdf:RDF>
      <cc:Work
         rdf:about="">
        <dc:format>image/svg+xml</dc:format>
        <dc:type
           rdf:resource="http://purl.org/dc/dcmitype/StillImage" />
        <dc:title></dc:title>
      </cc:Work>
    </rdf:RDF>
  </metadata>
  <defs
     id="defs6" />
  <sodipodi:namedview
     pagecolor="#ffffff"
     bordercolor="#666666"
     borderopacity="1"
     objecttolerance="10"
     gridtolerance="10"
     guidetolerance="10"
     inkscape:pageopacity="0"
     inkscape:pageshadow="2"
     inkscape:window-width="1366"
     inkscape:window-height="719"
     id="namedview4"
     showgrid="false"
     inkscape:zoom="1.475"
     inkscape:cx="154.89128"
     inkscape:cy="179.70697"
     inkscape:window-x="0"
     inkscape:window-y="26"
     inkscape:window-maximized="1"
     inkscape:current-layer="svg2" />
  <path
     style="fill:#d6ba32;fill-opacity:1;fill-rule:evenodd;stroke:none;stroke-width:1px;stroke-linecap:butt;stroke-linejoin:miter;stroke-opacity:1"
     d="m 28.474609,17.627317 23.050782,259.666283 109.830079,29.14781 109.83008,-30.47219 24.4082,-258.341903 -267.119141,0 z m 143.728511,55.643047 85.42383,0 -2.0332,29.808096 -56.27148,0.66219 0,45.70828 52.20312,-5.96352 -6.7793,81.478 -72.54297,20.53552 0,-32.45876 52.88086,-12.58542 0,-23.84839 -52.88086,7.95009 0,-111.286086 z m -46.77929,0.662189 25.08398,0 0,170.240097 -77.287107,-19.87143 0,-31.79657 52.203127,15.23609 0,-133.808187 z"
     id="path4138"
     inkscape:connector-curvature="0" />
  <path
     style="fill:#d6ba32;fill-opacity:1;fill-rule:evenodd;stroke:none;stroke-width:1px;stroke-linecap:butt;stroke-linejoin:miter;stroke-opacity:1"
     d="m 52.755859,40.149412 18.982422,222.572178 89.492189,25.17086 0,-246.418658 -108.474611,-1.32438 z m 72.667971,33.783141 25.08398,0 0,170.240097 -77.287107,-19.87143 0,-31.79657 52.203127,15.23609 0,-133.808187 z"
     id="path4142"
     inkscape:connector-curvature="0" />
  <path
     style="fill:#ffda3e;fill-opacity:1;fill-rule:evenodd;stroke:none;stroke-width:1px;stroke-linecap:butt;stroke-linejoin:miter;stroke-opacity:1"
     clip-path="none"
     d="m 271.18555,40.149412 -108.47461,1.32438 0,246.418658 89.49218,-25.17086 18.98243,-222.572178 z m -98.98243,33.120952 85.42383,0 -2.0332,29.808096 -56.27148,0.66219 0,45.70828 52.20312,-5.96352 -6.7793,81.478 -72.54297,20.53552 0,-32.45876 52.88086,-12.58542 0,-23.84839 -52.88086,7.95009 0,-111.286086 z"
     id="path4140"
     inkscape:connector-curvature="0" />
</svg>
